<?xml version="1.0" encoding="utf-8"?>
<!-- Generator: Adobe Illustrator 27.5.0, SVG Export Plug-In . SVG Version: 6.00 Build 0)  -->
<svg version="1.1" id="Layer_1" xmlns="http://www.w3.org/2000/svg" xmlns:xlink="http://www.w3.org/1999/xlink" x="0px" y="0px"
	 viewBox="0 0 25.237 42.16" style="enable-background:new 0 0 25.237 42.16;" xml:space="preserve">
<g>
	<g>
		<g>
			<g>
				<path style="fill:#FCD5B7;" d="M12.88,17.973l0.002-0.2c-0.412,0.069-0.873,0.107-1.369,0.083l0.051,0.209l0.035,0.123
					c0,0-0.249,0.185-0.273,0.607c-0.023,0.423,0.637,0.665,1.068,0.393c0.265-0.166,0.425-0.367,0.525-0.551
					c0.063-0.118,0.099-0.229,0.122-0.318C13.096,18.088,12.88,17.973,12.88,17.973z"/>
				<g>
					<path style="fill:#B7723C;" d="M12.92,17.982c0-0.067,0-0.134,0-0.201c0.002-0.023-0.047-0.026-0.063-0.025
						c-0.452,0.074-0.903,0.101-1.36,0.081c-0.01,0-0.024,0.002-0.021,0.015c0.005,0.022,0.094,0.318,0.081,0.329
						c-0.124,0.098-0.19,0.253-0.236,0.397c-0.111,0.347,0.096,0.64,0.439,0.713c0.404,0.087,0.712-0.068,0.995-0.358
						c0.221-0.225,0.524-0.743,0.155-0.964c-0.017-0.011-0.094-0.011-0.06,0.011c0.541,0.322-0.316,1.135-0.64,1.266
						c-0.762,0.309-1.104-0.624-0.576-1.046c0.002-0.001,0.002-0.004,0.002-0.008c-0.019-0.063-0.038-0.129-0.053-0.196
						c-0.025-0.107-0.069-0.122,0.08-0.116c0.132,0.005,0.263,0.002,0.392-0.002c0.209-0.006,0.416-0.026,0.622-0.053
						c0.193-0.022,0.166-0.049,0.165,0.142C12.843,17.989,12.92,18,12.92,17.982z"/>
				</g>
			</g>
			<g style="opacity:0.7;">
				<path style="fill:#ECC5AA;" d="M12.88,17.973l0.002-0.2c-0.412,0.069-0.873,0.107-1.369,0.083l0.051,0.209l0.035,0.123
					c0,0-0.249,0.185-0.273,0.607c-0.023,0.423,0.637,0.665,1.068,0.393c0.265-0.166,0.425-0.367,0.525-0.551
					c0.063-0.118,0.099-0.229,0.122-0.318C13.096,18.088,12.88,17.973,12.88,17.973z M11.948,19.041
					c-0.666-0.034-0.536-0.604-0.253-0.82c-0.073-0.156,0.035-0.3,0.354-0.321c0.322-0.019,0.52-0.023,0.66,0.215
					C12.852,18.353,12.614,19.075,11.948,19.041z"/>
			</g>
		</g>
		<g>
			<g>
				<path style="fill:#C32526;" d="M17.641,22.608c0,0-0.846-4.005-4.041-4.305c0,0-0.137-0.379-0.72-0.331
					c0,0,0.216,0.115,0.162,0.346c-0.056,0.229-0.214,0.597-0.647,0.869c-0.432,0.271-1.092,0.029-1.068-0.393
					c0.024-0.422,0.273-0.607,0.273-0.607l-0.035-0.123c0,0-0.194,0.051-0.363,0.123c-0.169,0.07-0.194,0.271-0.194,0.271
					s-0.792,0.077-1.296,0.298c-0.505,0.22-2.059,1.742-2.13,1.78c-0.071,0.039-0.285-0.033-0.317,0.201
					c-0.031,0.233,0.194,0.505,0.194,0.505l0.197-0.123c0,0,0.233,0.155,0.534,0.612c0.303,0.456,0.263,0.669,0.263,0.669
					l-0.113,0.132c0,0,0.168,0.265,0.337,0.361c0,0-0.44,1.367-0.337,3.335c0,0-0.354,0.273-0.363,0.466
					c-0.009,0.195,0.244,0.448,0.244,0.448s0.649,0.569,2.937,0.62c2.286,0.053,4.076-0.894,4.076-0.894s0.252-0.106,0.233-0.603
					c-0.019-0.495-0.155-1.301-0.146-1.445c0.01-0.146,0.263-0.962,0.292-1.284c0,0,1.107,0.148,1.688-0.193
					C17.883,23.006,17.923,22.655,17.641,22.608z"/>
				<g>
					<path style="fill:#861A1A;" d="M17.679,22.61c-0.268-1.23-0.914-2.431-1.823-3.302c-0.556-0.533-1.258-0.846-2.006-0.988
						c-0.371-0.072-0.544-0.352-0.986-0.364c-0.016-0.001-0.03,0.009-0.013,0.022c0.33,0.233,0.044,0.629-0.093,0.838
						c-0.367,0.562-1.8-0.001-1.123-0.618c0.002-0.001,0.002-0.004,0.002-0.008c-0.012-0.041-0.023-0.082-0.035-0.122
						c-0.008-0.021-0.053-0.025-0.071-0.019c-0.156,0.047-0.467,0.092-0.529,0.292c-0.063,0.202-0.659,0.204-0.838,0.243
						c-0.534,0.119-0.894,0.413-1.304,0.758c-0.443,0.371-0.856,0.777-1.287,1.161c-0.281,0.249-0.534,0.212-0.149,0.74
						c0.013,0.018,0.052,0.024,0.07,0.013c0.416-0.259,1.12,0.908,0.808,1.263c-0.005,0.005-0.001,0.009,0.002,0.015
						c0.19,0.274,0.344,0.295,0.257,0.63c-0.134,0.532-0.2,1.08-0.247,1.626c-0.029,0.349-0.028,0.697-0.028,1.047
						c0.002,0.653-0.122,0.274-0.286,0.696c-0.096,0.238-0.008,0.452,0.194,0.62c0.318,0.261,0.795,0.355,1.182,0.443
						c1.232,0.284,2.551,0.235,3.781-0.001c0.72-0.138,1.455-0.372,2.108-0.708c0.596-0.308,0.024-1.662,0.111-2.156
						c0.041-0.227,0.194-1.178,0.389-1.159c0.375,0.036,0.743,0.012,1.112-0.048c0.285-0.046,1.411-0.661,0.787-0.924
						c-0.021-0.011-0.092-0.004-0.045,0.016c0.692,0.293-0.898,0.892-1.039,0.915c-0.314,0.049-0.66,0.028-0.975-0.008
						c-0.008-0.002-0.031-0.003-0.033,0.009c-0.068,0.449-0.305,0.927-0.288,1.382c0.024,0.583,0.354,1.348-0.001,1.876
						c-0.125,0.189-0.56,0.281-0.747,0.354c-0.971,0.379-2.001,0.56-3.04,0.604c-0.274,0.012-4.54-0.18-3.177-1.458
						c0.233-0.22,0.086-1.677,0.132-2.074c0.051-0.438,0.133-0.888,0.264-1.311c0.002-0.006-0.005-0.012-0.011-0.013
						c-0.411-0.351-0.158-0.351-0.254-0.722c-0.099-0.383-0.453-0.823-0.766-1.055c-0.017-0.011-0.047-0.019-0.066-0.007
						c-0.392,0.244-0.193-0.407,0.026-0.579c0.28-0.222,0.531-0.489,0.795-0.729c0.807-0.732,1.47-1.201,2.592-1.324
						c0.005,0,0.012-0.003,0.013-0.008c0.102-0.322,0.698-0.531,0.392-0.148c-0.16,0.201-0.153,0.434-0.106,0.664
						c0.046,0.221,0.425,0.313,0.598,0.333c0.457,0.053,0.8-0.317,1.025-0.661c0.088-0.135,0.174-0.362,0.109-0.525
						c-0.15-0.379,0.358-0.139,0.5,0.168c0.029,0.066,1.201,0.327,1.36,0.403c0.805,0.381,1.405,1.117,1.858,1.861
						c0.374,0.617,0.667,1.331,0.823,2.038C17.608,22.624,17.686,22.634,17.679,22.61z"/>
				</g>
			</g>
			<g>
				<g>
					<path style="fill:#EFEFEF;" d="M11.484,26.87c-1.807-0.036-2.756-0.359-3.207-0.589c-0.103,0.088-0.294,0.271-0.303,0.414
						c-0.009,0.195,0.244,0.448,0.244,0.448s0.649,0.569,2.937,0.62c2.286,0.053,4.076-0.894,4.076-0.894s0.252-0.106,0.233-0.603
						c-0.005-0.126-0.018-0.273-0.034-0.426C15.01,26.154,13.747,26.919,11.484,26.87z"/>
					<path style="fill:#EFEFEF;" d="M8.408,24.239c-0.04,0.323-0.073,0.695-0.083,1.106c0.474,0.215,1.454,0.536,3.134,0.561
						c2.074,0.032,3.456-0.525,3.894-0.728c-0.023-0.173-0.037-0.307-0.033-0.356c0.004-0.047,0.031-0.163,0.068-0.31
						C11.535,25.306,9.287,24.627,8.408,24.239z"/>
				</g>
			</g>
			<g>
				<g>
					<path style="fill:#861A1A;" d="M14.571,20.673c0,0,0.018,0.022,0.044,0.063c0.026,0.042,0.063,0.1,0.104,0.172
						c0.021,0.036,0.041,0.077,0.063,0.118c0.021,0.045,0.046,0.089,0.065,0.137c0.019,0.047,0.04,0.096,0.061,0.149
						c0.022,0.049,0.04,0.101,0.057,0.154c0.017,0.052,0.034,0.105,0.052,0.157c0.018,0.052,0.026,0.104,0.039,0.155
						c0.011,0.051,0.023,0.1,0.034,0.147c0.011,0.047,0.017,0.092,0.022,0.132c0.01,0.084,0.016,0.152,0.02,0.2
						c0.006,0.049,0.008,0.075,0.008,0.075s-0.01-0.026-0.023-0.072c-0.012-0.048-0.031-0.112-0.051-0.193
						c-0.011-0.041-0.019-0.082-0.034-0.128c-0.014-0.044-0.028-0.092-0.043-0.142c-0.016-0.049-0.029-0.098-0.046-0.15
						c-0.019-0.051-0.035-0.103-0.053-0.154c-0.017-0.052-0.034-0.104-0.054-0.153c-0.019-0.051-0.038-0.101-0.056-0.148
						c-0.017-0.049-0.036-0.095-0.053-0.138c-0.019-0.044-0.032-0.086-0.051-0.124c-0.032-0.075-0.056-0.139-0.077-0.184
						C14.582,20.699,14.571,20.673,14.571,20.673z"/>
				</g>
				<g>
					<path style="fill:#861A1A;" d="M14.969,19.886c0.005,0.135,0.006,0.27,0.014,0.402l0.008,0.199
						c0.002,0.069,0.007,0.136,0.011,0.202l0.013,0.201c0.002,0.067,0.01,0.131,0.016,0.198l0.017,0.201
						c0.006,0.067,0.011,0.133,0.019,0.199l0.05,0.397l0.012,0.1l0.016,0.099l0.033,0.197l0.032,0.198
						c0.01,0.065,0.03,0.13,0.043,0.195c0.032,0.129,0.061,0.259,0.092,0.39l0.003,0.016l-0.011,0.012
						c-0.023,0.024-0.046,0.056-0.063,0.087c-0.017,0.03-0.028,0.064-0.03,0.097c-0.001,0.018,0,0.034,0.004,0.052
						c0.005,0.015,0.012,0.033,0.019,0.047c0.011,0.018,0.02,0.029,0.032,0.041c0.014,0.011,0.027,0.024,0.042,0.032
						c0.063,0.039,0.137,0.059,0.211,0.074c0.074,0.015,0.151,0.025,0.227,0.032c-0.076,0-0.155-0.002-0.23-0.013
						c-0.077-0.011-0.154-0.026-0.225-0.064c-0.019-0.009-0.036-0.02-0.053-0.034c-0.016-0.015-0.03-0.031-0.041-0.046
						c-0.011-0.019-0.02-0.037-0.024-0.059c-0.008-0.021-0.01-0.043-0.01-0.063c0.002-0.041,0.014-0.082,0.031-0.12
						c0.019-0.037,0.041-0.071,0.07-0.103l-0.008,0.028c-0.035-0.13-0.07-0.26-0.104-0.39c-0.017-0.066-0.037-0.13-0.048-0.198
						L15.1,22.295l-0.034-0.198l-0.018-0.098l-0.013-0.102l-0.044-0.4c-0.008-0.067-0.011-0.136-0.016-0.2l-0.013-0.203
						c-0.011-0.133-0.009-0.269-0.012-0.402c-0.005-0.134-0.005-0.267,0-0.403C14.952,20.155,14.958,20.021,14.969,19.886z"/>
				</g>
			</g>
			<g>
				<g>
					<path style="fill:#861A1A;" d="M9.628,19.968c0,0-0.018,0.053-0.05,0.147c-0.031,0.096-0.073,0.23-0.13,0.389
						c-0.056,0.16-0.12,0.35-0.192,0.549c-0.039,0.099-0.071,0.203-0.106,0.309c-0.036,0.105-0.072,0.213-0.106,0.32
						c-0.038,0.106-0.077,0.212-0.106,0.319c-0.03,0.107-0.061,0.212-0.091,0.314c-0.026,0.101-0.061,0.198-0.082,0.295
						c-0.025,0.093-0.049,0.183-0.07,0.266c-0.043,0.164-0.082,0.298-0.107,0.395c-0.028,0.097-0.044,0.15-0.044,0.15
						s0.01-0.056,0.027-0.153c0.021-0.099,0.047-0.237,0.081-0.403c0.017-0.082,0.036-0.172,0.058-0.268
						c0.017-0.097,0.045-0.195,0.072-0.298c0.027-0.104,0.056-0.208,0.085-0.316c0.027-0.109,0.063-0.216,0.102-0.325
						c0.037-0.106,0.075-0.214,0.111-0.318c0.039-0.105,0.074-0.209,0.113-0.308c0.075-0.199,0.151-0.383,0.214-0.542
						c0.064-0.155,0.12-0.286,0.159-0.378C9.604,20.019,9.628,19.968,9.628,19.968z"/>
				</g>
				<g>
					<path style="fill:#861A1A;" d="M9.084,20.149c0,0,0.005,0.035,0.012,0.096c0.005,0.059,0.015,0.146,0.023,0.251
						c0.003,0.051,0.006,0.108,0.009,0.167c0.003,0.058,0.01,0.122,0.01,0.188c0,0.066,0,0.133-0.002,0.201
						c-0.003,0.068-0.011,0.138-0.016,0.207c-0.008,0.07-0.023,0.139-0.032,0.207c-0.011,0.068-0.029,0.134-0.044,0.196
						c-0.016,0.064-0.034,0.126-0.051,0.182c-0.017,0.058-0.034,0.111-0.05,0.16c-0.028,0.101-0.058,0.182-0.078,0.239
						s-0.032,0.089-0.032,0.089s0.006-0.032,0.019-0.094c0.012-0.059,0.026-0.145,0.05-0.246c0.023-0.101,0.048-0.219,0.074-0.345
						c0.011-0.063,0.026-0.128,0.037-0.195c0.01-0.065,0.021-0.134,0.029-0.202c0.005-0.066,0.014-0.135,0.017-0.201
						c0.003-0.069,0.005-0.135,0.009-0.2c0.002-0.129,0.004-0.248,0.008-0.353c0-0.103,0.005-0.19,0.005-0.251
						C9.083,20.184,9.084,20.149,9.084,20.149z"/>
				</g>
			</g>
			<g>
				<g>
					<path style="fill:#861A1A;" d="M11.141,18.223c0,0-0.051,0.055-0.088,0.153c-0.01,0.024-0.018,0.051-0.024,0.081
						c-0.009,0.027-0.011,0.059-0.017,0.091c-0.002,0.033-0.005,0.065-0.005,0.1l0.001,0.052l0.007,0.052
						c0.001,0.035,0.007,0.069,0.014,0.104c0.006,0.034,0.013,0.066,0.022,0.099c0.009,0.031,0.015,0.063,0.023,0.093
						c0.011,0.029,0.019,0.058,0.025,0.084c0.008,0.024,0.016,0.049,0.022,0.069c0.008,0.021,0.013,0.038,0.019,0.055
						c0.008,0.031,0.015,0.049,0.015,0.049s-0.011-0.015-0.028-0.043c-0.01-0.012-0.019-0.029-0.033-0.049
						c-0.01-0.018-0.024-0.038-0.036-0.066c-0.013-0.022-0.026-0.05-0.039-0.079c-0.013-0.028-0.024-0.062-0.036-0.094
						c-0.009-0.034-0.021-0.067-0.027-0.104c-0.009-0.036-0.017-0.072-0.019-0.111l-0.005-0.055l0.001-0.056
						c-0.001-0.039,0.009-0.076,0.012-0.109c0.009-0.036,0.017-0.07,0.03-0.1c0.009-0.031,0.024-0.058,0.039-0.083
						c0.029-0.048,0.061-0.084,0.086-0.103C11.124,18.23,11.141,18.223,11.141,18.223z"/>
				</g>
			</g>
			<g>
				<g>
					<path style="fill:#861A1A;" d="M13.489,18.149c0,0,0.019,0.014,0.042,0.043c0.023,0.028,0.058,0.071,0.086,0.131
						c0.017,0.029,0.028,0.063,0.039,0.101c0.009,0.037,0.021,0.075,0.019,0.117c0.005,0.044-0.001,0.087-0.009,0.132
						c-0.001,0.022-0.013,0.043-0.018,0.065c-0.009,0.019-0.013,0.042-0.025,0.063c-0.022,0.037-0.041,0.08-0.07,0.112
						c-0.027,0.035-0.056,0.067-0.088,0.094c-0.031,0.025-0.058,0.054-0.09,0.074c-0.031,0.021-0.061,0.04-0.089,0.057
						c-0.026,0.019-0.056,0.028-0.078,0.039c-0.024,0.011-0.045,0.02-0.063,0.026c-0.034,0.015-0.055,0.024-0.055,0.024
						s0.017-0.015,0.047-0.035c0.016-0.012,0.032-0.025,0.056-0.04c0.019-0.017,0.043-0.031,0.067-0.054
						c0.024-0.02,0.049-0.041,0.076-0.064c0.029-0.02,0.051-0.05,0.079-0.078c0.03-0.024,0.051-0.059,0.073-0.089
						c0.028-0.031,0.042-0.066,0.064-0.102c0.011-0.016,0.014-0.035,0.021-0.056c0.007-0.017,0.015-0.035,0.019-0.054
						c0.005-0.039,0.015-0.075,0.013-0.113c0.004-0.036-0.004-0.072-0.006-0.108c-0.009-0.033-0.013-0.065-0.025-0.094
						c-0.016-0.06-0.038-0.108-0.056-0.141C13.503,18.169,13.489,18.149,13.489,18.149z"/>
				</g>
			</g>
			<g>
				<path style="fill:#C5CBD3;" d="M17.641,22.608c0,0-0.121-0.577-0.447-1.309c0.069,0.16,0.28,0.707,0.127,1.09
					c-0.134,0.334-1.477,0.531-1.898-0.058c-0.422-0.588-0.457-2.512-0.457-2.512c-0.064,0.253-0.08,1.347-0.08,1.347l-0.209-0.285
					c0,0,0.551,1.404,0.422,2.706c-0.207,2.085-1.697,2.811-1.697,2.811c0.299-0.028,1.023-0.181,1.023,0.155
					c0,0.338-1.359,1.039-3.795,0.96c-2.434-0.078-2.837-1.229-1.839-1.02c0.999,0.209,1.4,0.166,1.4,0.166
					c-2.253-0.35-1.62-3.368-1.62-3.368l0,0c-0.123,0.542-0.305,1.601-0.233,2.939c0,0-0.354,0.273-0.363,0.466
					c-0.009,0.195,0.244,0.448,0.244,0.448s0.649,0.569,2.937,0.62c2.286,0.053,4.076-0.894,4.076-0.894s0.252-0.106,0.233-0.603
					c-0.019-0.495-0.155-1.301-0.146-1.445c0.01-0.146,0.263-0.962,0.292-1.284c0,0,1.107,0.148,1.688-0.193
					C17.883,23.006,17.923,22.655,17.641,22.608z"/>
			</g>
			<g>
				<path style="fill:#C5CBD3;" d="M17.641,22.608c0,0-0.846-4.005-4.041-4.305c0,0-0.131-0.36-0.682-0.332
					c0.234,0.043,0.602,0.26,0.602,0.598c0,0.497-0.517,0.658-0.517,0.658c1.851-0.579,2.366-0.458,3.627,1.223
					c0.573,0.763,0.748,1.731,0.243,1.939c-0.506,0.211-1.312,0.013-1.584-0.885c-0.273-0.901-0.224-2.201-0.224-2.201
					c-0.366,0.428-0.212,1.483-0.212,1.483l-0.43-0.346c1.352,3.287-0.092,5.983-3.641,5.467c-3.735-0.542-1.08-6.14-1.08-6.14
					c-0.31,0.504-0.458,1.205-0.493,0.744c-0.035-0.461-0.161-0.744-0.161-0.744c-0.01,0.828-0.345,2.39-0.507,1.954
					C8.381,21.283,8.06,20.97,7.786,20.75c-0.255-0.199-0.112-0.067,0.523-0.726c0.637-0.662,1.209-1.273,2.118-1.399
					c0.452-0.063,0.68,0.678,0.772,0.737c-0.204-0.485-0.235-1.105,0.383-1.228l-0.019-0.07c0,0-0.194,0.051-0.363,0.123
					c-0.169,0.07-0.194,0.271-0.194,0.271s-0.792,0.077-1.296,0.298c-0.505,0.22-2.059,1.742-2.13,1.78
					c-0.071,0.039-0.285-0.033-0.317,0.201c-0.031,0.233,0.194,0.505,0.194,0.505l0.197-0.123c0,0,0.233,0.155,0.534,0.612
					c0.303,0.456,0.263,0.669,0.263,0.669l-0.113,0.132c0,0,0.168,0.265,0.337,0.361c0,0-0.44,1.367-0.337,3.335
					c0,0-0.354,0.273-0.363,0.466c-0.009,0.195,0.244,0.448,0.244,0.448s0.649,0.569,2.937,0.62
					c2.286,0.053,4.076-0.894,4.076-0.894s0.252-0.106,0.233-0.603c-0.019-0.495-0.155-1.301-0.146-1.445
					c0.01-0.146,0.263-0.962,0.292-1.284c0,0,1.107,0.148,1.688-0.193C17.883,23.006,17.923,22.655,17.641,22.608z M11.562,27.298
					c-2.375,0.238-3.343-0.521-1.614-0.492c0.865,0.013,2.396-0.045,3.273-0.255C14.098,26.341,13.938,27.061,11.562,27.298z"/>
			</g>
			<path style="opacity:0.5;fill:#FFFFFF;" d="M10.77,20.198c0,0-1.43,2.229,0.044,5.371c0.266,0.563-1.398-0.155-1.563-2.449
				C9.089,20.86,10.95,19.461,10.77,20.198z"/>
		</g>
		<g>
			<g>
				<path style="fill:#3A271B;" d="M15.334,28.694c-0.027-0.858-0.061-1.604-0.102-1.824c0,0-0.473,0.251-1.241,0.485
					C14.047,27.817,14.314,28.473,15.334,28.694z"/>
				<g>
					<path style="fill:#2D2017;" d="M15.373,28.692c-0.02-0.603-0.007-1.226-0.103-1.822c-0.003-0.022-0.054-0.016-0.067-0.011
						c-0.392,0.205-0.815,0.352-1.233,0.483c-0.005,0.001-0.021,0.006-0.02,0.015c0.106,0.752,0.653,1.181,1.363,1.351
						c0.024,0.005,0.091-0.018,0.04-0.029c-0.484-0.117-0.905-0.342-1.157-0.784c-0.084-0.148-0.129-0.317-0.158-0.483
						c-0.015-0.083,0.616-0.265,0.677-0.289c0.158-0.063,0.314-0.13,0.469-0.202c0.023-0.012,0.048-0.025,0.07-0.036
						c-0.087,0.043-0.046,0.116-0.036,0.208c0.049,0.531,0.059,1.069,0.077,1.602C15.295,28.717,15.374,28.715,15.373,28.692z"/>
				</g>
			</g>
			<g>
				<path style="fill:#554033;" d="M14.532,38.5c1.156-0.011,1.181-0.529,1.181-0.529s0.023-0.171,0.034-0.365
					c0.01-0.195-0.127-0.398-0.127-0.398s0.184-1.748,0.184-2.525c0-0.778-0.302-1.517-0.271-1.7
					c0.029-0.186,0.339-0.409,0.185-0.594c-0.155-0.184-0.311-0.31-0.311-0.457c0-0.09-0.027-1.816-0.073-3.237
					c-1.02-0.222-1.287-0.877-1.344-1.339c-0.729,0.224-1.725,0.435-2.835,0.408c-2.287-0.051-2.937-0.62-2.937-0.62
					s-0.283,0.214-0.331,0.407c-0.049,0.194,0.116,0.292,0.097,0.418c-0.018,0.127-0.721,2.354-0.663,4.258
					c0.058,1.903,0.395,5.776,0.395,5.776s0.046,0.379,1.018,0.428c1.126,0.059,1.301-0.281,1.301-0.281s0.066-0.585,0.234-2.023
					c0.167-1.438,0.206-2.125,0.167-2.345c-0.039-0.222,0.259-0.363,0.103-0.608c-0.156-0.245-0.012-0.868,0.182-1.855
					c0.194-0.981,0.66-1.902,0.66-1.902s0.686,2.462,0.881,3.174c0.194,0.711,0.648,1.995,0.816,3.146
					c0.167,1.155,0.233,1.95,0.149,2.027c-0.085,0.079-0.214,0.143-0.007,0.545C13.221,38.309,13.377,38.508,14.532,38.5z"/>
				<g>
					<path style="fill:#2D2017;" d="M14.557,38.518c0.466-0.027,1.144-0.068,1.209-0.646c0.041-0.365-0.106-0.655-0.069-1.019
						c0.049-0.518,0.092-1.038,0.125-1.556c0.034-0.531,0.008-1.025-0.095-1.548c-0.051-0.252-0.143-0.5-0.155-0.76
						c-0.013-0.234,0.222-0.323,0.184-0.597c-0.057-0.398-0.308-0.326-0.313-0.602c-0.003-0.276-0.008-0.552-0.015-0.829
						c-0.013-0.754-0.033-1.506-0.056-2.259c0-0.016-0.021-0.021-0.034-0.026c-0.722-0.205-1.187-0.593-1.311-1.316
						c-0.003-0.022-0.053-0.026-0.067-0.022c-1.356,0.395-2.703,0.484-4.104,0.31c-0.504-0.063-1.195-0.171-1.608-0.51
						c-0.014-0.012-0.051-0.024-0.064-0.011c-0.461,0.384-0.24,0.837-0.381,1.37c-0.266,1.008-0.446,2.035-0.513,3.073
						c-0.115,1.802,0.164,3.688,0.31,5.48c0.078,0.977,0.05,1.285,1.14,1.396c0.405,0.04,0.965,0.032,1.297-0.244
						c0.214-0.176,0.16-1.126,0.188-1.368c0.11-0.951,0.265-1.917,0.264-2.878c0-0.174,0.143-0.438,0.124-0.563
						c-0.077-0.499-0.075-0.891,0.017-1.396c0.098-0.543,0.218-1.074,0.389-1.601c0.086-0.264,0.392-0.759,0.332-0.968
						c0.194,0.694,0.388,1.391,0.581,2.088c0.551,1.981,1.316,3.995,1.294,6.081c-0.003,0.243-0.342,0.489,0,0.735
						c0.329,0.241,0.959,0.179,1.324,0.182c0.051,0.002-0.009-0.036-0.032-0.036c-0.44-0.006-1.563,0.015-1.251-0.707
						c0.094-0.212,0.027-0.512,0.011-0.737c-0.09-1.187-0.349-2.334-0.687-3.472c-0.408-1.376-0.784-2.761-1.169-4.144
						c-0.006-0.018-0.066-0.035-0.077-0.016c-0.756,1.531-0.888,3.159-0.936,4.804c-0.034,1.123-0.219,2.248-0.347,3.362
						c-0.022,0.19-0.044,0.379-0.064,0.567c-0.076,0.688-2.263-0.173-2.238-0.113c-0.153-0.362-0.084-0.985-0.116-1.369
						c-0.088-1.095-0.167-2.192-0.23-3.289c-0.066-1.137-0.046-2.231,0.141-3.355c0.103-0.615,0.606-1.618,0.412-2.222
						c-0.342-1.053,0.607-0.43,0.852-0.346c0.748,0.267,1.569,0.31,2.355,0.337c0.578,0.022,1.157-0.045,1.728-0.138
						c0.344-0.057,1.005-0.409,1.129,0.035c0.161,0.575,1.264,0.855,1.279,1.337c0.029,0.968,0.052,1.937,0.062,2.905
						c0,0.082,0.048,0.163,0.101,0.225c0.444,0.504,0.013,0.559,0.031,0.935c0.028,0.533,0.238,1.046,0.267,1.591
						c0.04,0.799-0.095,1.633-0.176,2.426c-0.027,0.279,0.12,0.555,0.085,0.864c-0.055,0.481-0.828,0.5-1.168,0.52
						C14.467,38.483,14.537,38.52,14.557,38.518z"/>
				</g>
			</g>
			<g>
				<path style="fill:#2D2017;" d="M10.734,28.97c0,0,0.022,0,0.063,0c0.042,0.003,0.102,0.001,0.171,0.008
					c0.036,0.005,0.072,0.01,0.114,0.014c0.04,0.007,0.082,0.016,0.127,0.027l0.017,0.004l0.005,0.001h0.002l0,0
					c0.002,0.002-0.006-0.003,0.004,0.004h0.003l0.008,0.004c0.002,0.002,0.013,0.01,0.019,0.017
					c0.009,0.006,0.01,0.008,0.016,0.015c0.018,0.021,0.029,0.043,0.041,0.063c0.023,0.043,0.039,0.088,0.056,0.132
					c0.065,0.179,0.105,0.36,0.13,0.499c0.014,0.069,0.021,0.127,0.025,0.168c0.007,0.041,0.009,0.065,0.009,0.065
					s-0.01-0.023-0.023-0.063c-0.011-0.037-0.031-0.093-0.053-0.159c-0.045-0.134-0.099-0.312-0.162-0.484
					c-0.015-0.043-0.03-0.084-0.05-0.123c-0.011-0.019-0.02-0.038-0.031-0.053c-0.001-0.003-0.006-0.01-0.006-0.01
					c-0.003-0.001,0-0.001-0.006-0.005l-0.007-0.004l-0.002-0.002c0.009,0.004,0.003,0.002,0.005,0.002h-0.002l0,0H11.2
					l-0.015-0.006c-0.04-0.011-0.077-0.024-0.115-0.035c-0.04-0.009-0.076-0.018-0.109-0.025
					C10.824,28.991,10.734,28.97,10.734,28.97z"/>
			</g>
			<g style="opacity:0.4;">
				<path style="fill:#5E5F5E;" d="M15.805,34.683c0-0.778-0.302-1.517-0.271-1.7c0.029-0.186,0.339-0.409,0.185-0.594
					c-0.155-0.184-0.311-0.31-0.311-0.457c0-0.09-0.027-1.816-0.073-3.237c-1.02-0.222-1.287-0.877-1.344-1.339
					c-0.729,0.224-1.725,0.435-2.835,0.408c-2.287-0.051-2.937-0.62-2.937-0.62s-0.283,0.214-0.331,0.407
					c-0.049,0.194,0.116,0.292,0.097,0.418c-0.018,0.127-0.721,2.354-0.663,4.258c0.058,1.903,0.395,5.776,0.395,5.776
					s0.046,0.379,1.018,0.428c1.126,0.059,1.301-0.281,1.301-0.281s0.066-0.585,0.234-2.023c0.167-1.438,0.206-2.125,0.167-2.345
					c-0.039-0.222,0.259-0.363,0.103-0.608c-0.156-0.245-0.012-0.868,0.182-1.855c0.194-0.981,0.66-1.902,0.66-1.902
					s0.686,2.462,0.881,3.174c0.194,0.711,0.648,1.995,0.816,3.146c0.167,1.155,0.233,1.95,0.149,2.027
					c-0.085,0.079-0.214,0.143-0.007,0.545c0,0,0.156,0.199,1.312,0.191c1.156-0.011,1.181-0.529,1.181-0.529
					s0.023-0.171,0.034-0.365c0.01-0.195-0.127-0.398-0.127-0.398S15.805,35.459,15.805,34.683z M13.99,37.872
					c-0.959-0.306-0.38-1.403-0.789-2.88c-0.407-1.476-1.204-5.887-1.64-6.022c-0.435-0.137-1.515-0.448-1.52-0.175
					c-0.037,1.962-1.123,3.866-0.617,4.255c0.504,0.39-0.271,0.758-0.175,1.38c0.398,2.546-0.559,3.569-0.925,3.438
					c-0.643-0.231-0.728-4.128-0.808-5.285c-0.077-1.155,0-1.554,0.312-3.042c0.312-1.484,0.788-1.513,0.788-1.513
					s-0.554-0.117-0.583-0.399c-0.03-0.281,0.291-0.271,0.708-0.097c0.418,0.174,2.087,0.528,3.793,0.235
					c2.405-0.415,1.599,4,2.128,4.35c0.527,0.35,0.034,1.01,0.093,1.146C15.899,35.935,14.949,38.178,13.99,37.872z"/>
			</g>
			<path style="opacity:0.3;fill:#FFFFFF;" d="M8.184,29.066c-0.351,1.038-0.507,2.046-0.546,2.708
				c-0.038,0.66,0.169,3.536,0.401,4.662c0.234,1.128,0.273-2.356,0.259-3.355c-0.012-0.996,0.118-2.759,0.324-3.717
				C8.83,28.405,8.524,28.054,8.184,29.066z"/>
			<path style="opacity:0.3;fill:#FFFFFF;" d="M12.25,30.017c0.367,1.468,1.239,5.49,1.493,6.668
				c0.252,1.177,0.512-0.118,0.351-2.035c-0.161-1.919-0.65-3.806-1.098-4.871C12.508,28.612,11.749,28.024,12.25,30.017z"/>
			<g style="opacity:0.4;">
				<path style="fill:#5E5F5E;" d="M11.171,29.076c-0.165-0.069-0.796-0.184-0.796-0.184s0.475,0.408,0.262,1.467
					c-0.213,1.058-0.573,2.191-0.651,2.564c-0.077,0.37,0.146,0.301,0.155,0.544c0.01,0.242-0.223,0.593-0.223,1.098
					c0,0.506-0.012,3.254-0.815,3.613c-0.489,0.22-1.068,0.117-1.383-0.158c0.023,0.073,0.165,0.368,1.014,0.411
					c1.126,0.059,1.301-0.281,1.301-0.281s0.066-0.585,0.234-2.023c0.167-1.438,0.206-2.125,0.167-2.345
					c-0.039-0.222,0.259-0.363,0.103-0.608c-0.156-0.245-0.012-0.868,0.182-1.855c0.194-0.981,0.66-1.902,0.66-1.902
					S11.337,29.144,11.171,29.076z"/>
			</g>
		</g>
		<g>
			<g>
				<g>
					<path style="fill:#554033;" d="M8.691,39.859c-0.169-0.036-0.649,0.408-2.435,0.311c-1.789-0.099-1.584-0.561-1.584-0.561
						s-0.136,0.104-0.126,0.347c0.01,0.244,1.206,0.67,2.138,0.67c0.933,0,1.903-0.495,2.01-0.477
						c0.108,0.021,0.438,0.148,0.913,0.089c0.477-0.059,0.671-0.204,0.594-0.495C10.2,39.743,9.442,40.015,8.691,39.859z"/>
					<g>
						<path style="fill:#2D2017;" d="M8.691,39.843c-0.319-0.005-0.684,0.198-0.994,0.256c-0.317,0.06-3.216,0.184-2.985-0.488
							c0.008-0.02-0.065-0.018-0.077-0.006c-0.751,0.772,1.99,1.078,2.38,1.02c0.468-0.068,0.899-0.188,1.346-0.345
							c0.338-0.12,0.581-0.026,0.918-0.012c0.387,0.015,1.006-0.017,0.962-0.523c-0.002-0.024-0.054-0.018-0.067-0.015
							c-0.522,0.17-0.933,0.18-1.471,0.114c-0.034-0.005-0.075,0.024-0.022,0.029c0.954,0.116,2.799-0.211-0.004,0.263
							c-0.925,0.155-1.511,0.55-2.559,0.43c-0.317-0.038-1.816-0.242-1.44-0.913c-0.01,0.015-0.067-0.077-0.042,0.049
							c0.077,0.387,1.021,0.438,1.269,0.458c0.616,0.045,1.22,0.054,1.831-0.031c0.306-0.043,0.658-0.258,0.956-0.255
							C8.736,39.876,8.738,39.845,8.691,39.843z"/>
					</g>
				</g>
				<g>
					<path style="fill:#C37E35;" d="M6.256,40.171c1.786,0.097,2.266-0.348,2.435-0.311c0.752,0.155,1.51-0.116,1.51-0.116
						s0.115-1.166-0.166-1.594c0,0-0.175,0.34-1.301,0.281c-0.972-0.049-1.018-0.428-1.018-0.428s-0.389-0.051-0.479,0.181
						c-0.091,0.234-0.79,0.21-1.243,0.196c-0.455-0.013-1.088,0-1.322,1.229C4.672,39.609,4.467,40.072,6.256,40.171z"/>
					<g>
						<path style="fill:#845331;" d="M6.245,40.188c0.72,0.024,1.43,0.007,2.121-0.215c0.582-0.188,1.238-0.017,1.855-0.217
							c0.005-0.003,0.018-0.006,0.018-0.015c0.049-0.531,0.066-1.107-0.166-1.598c-0.01-0.019-0.067-0.013-0.077,0.004
							c-0.302,0.464-2.118,0.363-2.241-0.145c-0.003-0.011-0.019-0.015-0.028-0.015c-0.152-0.012-0.254,0.011-0.396,0.058
							c-0.442,0.141-0.807,0.331-1.327,0.317c-0.391-0.011-0.688,0.049-0.981,0.323c-0.195,0.183-0.496,0.781-0.367,1.068
							C4.851,40.182,5.905,40.16,6.245,40.188c0.034,0.001,0.074-0.028,0.02-0.033c-0.228-0.016-1.674-0.041-1.555-0.545
							c0.208-0.872,0.559-1.232,1.516-1.207c0.259,0.006,0.505-0.008,0.761-0.047c0.194-0.028,0.63-0.479,0.712-0.287
							c0.143,0.334,0.743,0.35,1.024,0.379c0.388,0.039,0.806,0,1.167-0.15c0.07-0.029,0.126-0.077,0.175-0.132
							c-0.054,0.06,0.116,1.092,0.114,1.261c-0.015,0.76-0.924,0.278-1.552,0.421c-0.818,0.184-1.49,0.339-2.362,0.308
							C6.232,40.152,6.192,40.184,6.245,40.188z"/>
					</g>
				</g>
			</g>
			<g>
				<path style="fill:#C37E35;" d="M10.034,38.149c0,0-0.175,0.34-1.301,0.281c-0.972-0.049-1.018-0.428-1.018-0.428
					s-0.389-0.051-0.479,0.181c-0.091,0.234-0.79,0.21-1.243,0.196c-0.455-0.013-1.088,0-1.322,1.229c0,0-0.205,0.463,1.584,0.561
					c1.786,0.097,2.266-0.348,2.435-0.311c0.752,0.155,1.51-0.116,1.51-0.116S10.316,38.577,10.034,38.149z M9.314,39.356
					c-0.581,0.041-1.028-0.11-1.152-0.138c-0.125-0.029-0.265,0.641-2.013,0.562c-1.749-0.076-1.271-0.961-0.797-1.245
					c0.219-0.133,0.635-0.08,1.142-0.069c0.504,0.009,0.6-0.084,0.824-0.027c0.226,0.056,0.05,0.017,0.063-0.173
					c0.011-0.19,0.173-0.292,0.253-0.097c0.113,0.28,0.904,0.378,1.487,0.378c0.583,0,0.894-0.175,0.894,0.108
					C10.015,38.937,9.899,39.315,9.314,39.356z"/>
			</g>
			<path style="opacity:0.5;fill:#FFFFFF;" d="M6.052,38.5c-0.379-0.025-0.761-0.027-0.947,0.359c0,0,0.281-0.278,1.229-0.209
				c0.947,0.067,1.109-0.121,1.048-0.15C7.319,38.47,6.712,38.544,6.052,38.5z"/>
			<g style="opacity:0.9;">
				<path style="fill:#C5CBD3;" d="M10.2,39.743c0,0-0.758,0.272-1.51,0.116c-0.169-0.036-0.649,0.408-2.435,0.311
					c-1.789-0.099-1.584-0.561-1.584-0.561s-0.043,0.036-0.079,0.107c0.277,0.618,1.68,0.555,2.255,0.555
					c0.629,0,0.208,0.331-0.6,0.238c-0.728-0.084-1.421-0.271-1.698-0.625c-0.004,0.021-0.006,0.046-0.004,0.071
					c0.01,0.244,1.206,0.67,2.138,0.67c0.933,0,1.903-0.495,2.01-0.477c0.108,0.021,0.438,0.148,0.913,0.089
					C10.083,40.18,10.277,40.034,10.2,39.743z"/>
			</g>
		</g>
		<g>
			<g>
				<g>
					<path style="fill:#554033;" d="M13.454,40.734c-1.236,0.063-2.085-0.277-2.085-0.277s-0.157,0.227,0.137,0.396
						c0.29,0.169,1.709,0.473,2.558,0.157c0.848-0.318,1.132-0.881,1.372-1.172c0.24-0.293,0.628-0.475,0.486-0.771
						C15.922,39.066,14.688,40.671,13.454,40.734z"/>
					<g>
						<path style="fill:#2D2017;" d="M13.463,40.716c-0.692,0.019-1.413-0.025-2.067-0.271c-0.016-0.006-0.056-0.004-0.064,0.013
							c-0.379,0.729,1.967,0.705,2.269,0.679c0.579-0.054,1.088-0.38,1.479-0.791c0.296-0.308,0.956-0.831,0.882-1.282
							c-0.004-0.027-0.066-0.011-0.078,0.002c-0.591,0.758-1.441,1.534-2.43,1.653c-0.047,0.007-0.043,0.038,0.002,0.032
							c0.645-0.079,1.152-0.392,1.648-0.797c0.242-0.197,0.467-0.425,0.67-0.662c0.472-0.546-0.251,0.387-0.375,0.546
							c-0.329,0.426-0.621,0.776-1.099,1.05c-0.297,0.167-2.708,0.567-2.931-0.298c-0.052-0.195,0.526,0.037,0.658,0.065
							c0.468,0.098,0.943,0.106,1.419,0.096C13.479,40.75,13.518,40.716,13.463,40.716z"/>
					</g>
				</g>
				<g>
					<path style="fill:#C37E35;" d="M13.454,40.734c1.233-0.064,2.468-1.668,2.468-1.668s0.11-0.829-0.209-1.096
						c0,0-0.024,0.519-1.181,0.529c-1.155,0.008-1.312-0.191-1.312-0.191s-0.493,0.603-0.673,0.736
						c-0.183,0.137-1.019,0.261-1.167,0.824c-0.097,0.375-0.012,0.588-0.012,0.588S12.218,40.797,13.454,40.734z"/>
					<g>
						<path style="fill:#845331;" d="M13.473,40.75c1.026-0.126,3.313-1.506,2.276-2.782c-0.009-0.012-0.071-0.024-0.073-0.002
							c-0.085,0.693-2.036,0.73-2.421,0.34c-0.011-0.014-0.058-0.023-0.071-0.008c-0.302,0.367-0.566,0.715-1.02,0.884
							c-0.561,0.211-0.865,0.49-0.865,1.117c0,0.551,1.87,0.459,2.163,0.451c0.054,0,0.017-0.034-0.016-0.034
							c-0.552,0.014-2.068,0.164-2.068-0.591c-0.002-0.815,0.78-0.691,1.207-1.068c0.13-0.116,0.664-0.703,0.631-0.721
							c0.22,0.124,0.49,0.139,0.733,0.162c0.453,0.045,1.65,0.141,1.803-0.51c-0.052,0.218,0.154,0.659,0.142,0.939
							c-0.006,0.162-0.094,0.233-0.197,0.354c-0.585,0.677-1.343,1.323-2.261,1.434C13.385,40.725,13.447,40.752,13.473,40.75z"/>
					</g>
				</g>
			</g>
			<g>
				<path style="fill:#C37E35;" d="M15.713,37.971c0,0-0.024,0.519-1.181,0.529c-1.155,0.008-1.312-0.191-1.312-0.191
					s-0.493,0.603-0.673,0.736c-0.183,0.137-1.019,0.261-1.167,0.824c-0.097,0.375-0.012,0.588-0.012,0.588s0.849,0.34,2.085,0.277
					c1.233-0.064,2.468-1.668,2.468-1.668S16.032,38.237,15.713,37.971z M15.287,39.17c-0.312,0.012-0.266,0.07-0.318,0.187
					c-0.144,0.321-0.614,0.947-2.072,1.037c-1.458,0.09-1.548-0.598-1.094-0.932c0.271-0.202,0.639-0.272,0.786-0.371
					c0.149-0.096,0.458-0.554,0.568-0.621c0.111-0.067,0.75,0.299,1.759,0.169c1.012-0.131,0.797-0.668,0.889-0.2
					C15.896,38.904,15.599,39.156,15.287,39.17z"/>
			</g>
			<path style="opacity:0.5;fill:#FFFFFF;" d="M12.236,39.325c-0.385,0.387,0.293,0.754,1.516,0.641
				c0.42-0.038-0.532,0.471-1.723,0.151C11.122,39.876,12.372,39.188,12.236,39.325z"/>
			<g style="opacity:0.9;">
				<path style="fill:#C5CBD3;" d="M15.922,39.066c0,0-1.234,1.604-2.468,1.668c-1.236,0.063-2.085-0.277-2.085-0.277
					s-0.019,0.028-0.03,0.071c0.25,0.141,0.579,0.269,1.278,0.299c0.901,0.039,1.206-0.007,1.653-0.201
					c0.446-0.193-0.188,0.487-1.379,0.423c-0.793-0.046-1.176-0.123-1.445-0.234c0.019,0.013,0.037,0.026,0.06,0.038
					c0.29,0.169,1.709,0.473,2.558,0.157c0.848-0.318,1.132-0.881,1.372-1.172C15.676,39.545,16.063,39.363,15.922,39.066z"/>
			</g>
		</g>
		<g>
			<g>
				<path style="fill:#8F92A2;" d="M15.479,23.209c0,0,0.025-0.025,0.074-0.063c0.049-0.036,0.12-0.088,0.212-0.137
					c0.045-0.026,0.098-0.051,0.152-0.077c0.054-0.026,0.112-0.053,0.175-0.073s0.126-0.045,0.194-0.06
					c0.035-0.007,0.067-0.016,0.1-0.025l0.106-0.018c0.069-0.015,0.141-0.018,0.209-0.023c0.069-0.01,0.138-0.003,0.204-0.005
					c0.064-0.002,0.129,0.011,0.189,0.015c0.059,0.005,0.117,0.018,0.168,0.028c0.052,0.011,0.1,0.018,0.141,0.032
					c0.04,0.014,0.074,0.025,0.104,0.034c0.059,0.02,0.092,0.031,0.092,0.031s-0.035-0.006-0.094-0.017
					c-0.03-0.006-0.066-0.011-0.108-0.021c-0.041-0.007-0.09-0.009-0.14-0.017c-0.052-0.006-0.106-0.015-0.166-0.015
					c-0.06,0-0.121-0.006-0.186-0.002c-0.063,0.002-0.131,0.001-0.197,0.01c-0.066,0.007-0.135,0.012-0.203,0.026l-0.101,0.016
					c-0.033,0.007-0.066,0.016-0.099,0.024c-0.065,0.015-0.13,0.033-0.191,0.052c-0.122,0.04-0.234,0.079-0.328,0.124
					c-0.095,0.042-0.172,0.081-0.226,0.11C15.508,23.19,15.479,23.209,15.479,23.209z"/>
			</g>
			<g>
				<g>
					<path style="fill:#FCD5B7;" d="M18.052,28.316c-0.194-0.919-0.557-1.165-0.57-1.333c-0.011-0.159,0.182-2.514-0.171-4.184
						c-0.771-0.138-1.378,0.134-1.66,0.297c0.109,0.533,0.376,1.883,0.445,2.668c0.053,0.583,0.13,1.322,0,1.633
						c-0.129,0.31-0.44,0.69-0.388,1.298c0.051,0.606,0.459,0.541,0.459,0.541s-0.007,0.739,0.253,0.79
						c0.258,0.051,0.362-0.259,0.362-0.259s0.351,0.31,0.597-0.312c0,0,0.103,0.22,0.349-0.182
						C17.728,29.274,18.246,29.235,18.052,28.316z"/>
					<g>
						<path style="fill:#B7723C;" d="M18.092,28.313c-0.182-0.718-0.579-1.171-0.549-1.912c0.049-1.205,0.032-2.418-0.192-3.604
							c-0.002-0.01-0.015-0.012-0.021-0.012c-0.617-0.068-1.157,0.009-1.708,0.304c-0.002,0.001-0.01,0.007-0.01,0.012
							c0.179,0.883,0.352,1.77,0.445,2.668c0.06,0.573,0.181,1.254-0.077,1.79c-0.191,0.402-0.309,0.687-0.311,1.14
							c-0.002,0.262,0.179,0.576,0.471,0.556c-0.012,0-0.015,0.817,0.281,0.788c0.222-0.021,0.348-0.22,0.443-0.201
							c0.141,0.026,0.686-0.252,0.502-0.345C17.928,29.78,18.126,28.563,18.092,28.313c-0.005-0.024-0.082-0.016-0.08,0.007
							c0.047,0.344,0.132,0.796-0.306,0.943c-0.104,0.035-0.057,0.513-0.291,0.186c-0.012-0.019-0.066-0.012-0.075,0.007
							c-0.184,0.337-0.356,0.438-0.524,0.301c-0.015-0.012-0.063-0.008-0.071,0.01c-0.234,0.506-0.534-0.338-0.538-0.534
							c0-0.014-0.032-0.012-0.041-0.012c-0.8,0.054-0.264-1.36-0.107-1.661c0.192-0.373,0.151-0.776,0.128-1.185
							c-0.021-0.432-0.667-3.182-0.367-3.345c1.792-0.96,1.606,0.663,1.651,1.565c0.027,0.604,0.015,1.209-0.007,1.814
							c-0.027,0.783,0.349,1.128,0.548,1.912C18.018,28.344,18.097,28.331,18.092,28.313z"/>
					</g>
				</g>
				<g>
					<g>
						<path style="fill:#B7723C;" d="M16.699,28.784c0,0,0.009,0.021,0.022,0.056c0.012,0.036,0.031,0.088,0.05,0.15
							c0.035,0.125,0.07,0.297,0.071,0.474c0,0.089-0.009,0.177-0.029,0.261c-0.011,0.041-0.027,0.077-0.042,0.113
							c-0.018,0.036-0.04,0.067-0.063,0.092c-0.022,0.026-0.048,0.046-0.072,0.061c-0.024,0.015-0.046,0.022-0.064,0.027
							c-0.019,0.008-0.034,0.008-0.045,0.012c-0.01,0.002-0.015,0.002-0.015,0.002s0.005-0.002,0.013-0.007
							c0.011-0.005,0.025-0.008,0.04-0.02c0.016-0.01,0.035-0.021,0.053-0.039c0.018-0.017,0.037-0.038,0.054-0.063
							c0.034-0.053,0.057-0.118,0.071-0.195c0.009-0.037,0.011-0.076,0.016-0.119c0.003-0.04,0.005-0.082,0.003-0.124
							c0-0.168-0.02-0.339-0.035-0.466c-0.009-0.063-0.016-0.117-0.021-0.154C16.701,28.807,16.699,28.784,16.699,28.784z"/>
					</g>
					<g>
						<path style="fill:#B7723C;" d="M17.223,28.62c0,0,0.045,0.061,0.091,0.162c0.023,0.053,0.046,0.113,0.066,0.18
							c0.009,0.036,0.021,0.069,0.026,0.106c0.007,0.037,0.014,0.072,0.019,0.111c0.003,0.038,0.005,0.075,0.004,0.114
							c0.003,0.036-0.006,0.073-0.011,0.109c-0.003,0.037-0.016,0.069-0.022,0.101c-0.013,0.031-0.027,0.06-0.04,0.084
							c-0.016,0.027-0.034,0.046-0.049,0.063c-0.011,0.022-0.03,0.029-0.043,0.043c-0.025,0.019-0.041,0.029-0.041,0.029
							s0.011-0.016,0.03-0.043c0.009-0.011,0.021-0.025,0.031-0.047c0.008-0.019,0.021-0.039,0.029-0.065
							c0.007-0.027,0.018-0.052,0.024-0.081c0.004-0.03,0.012-0.062,0.014-0.094c0.001-0.034,0.005-0.067,0.001-0.101
							c0-0.036-0.003-0.07-0.007-0.104c-0.005-0.072-0.022-0.143-0.032-0.21c-0.016-0.065-0.028-0.128-0.043-0.181
							C17.242,28.691,17.223,28.62,17.223,28.62z"/>
					</g>
					<g>
						<path style="fill:#B7723C;" d="M17.611,28.457c0,0,0.033,0.052,0.066,0.14c0.016,0.043,0.034,0.096,0.045,0.151
							c0.016,0.058,0.023,0.12,0.028,0.181c0.002,0.033,0.002,0.064,0.002,0.095c0,0.031-0.004,0.06-0.006,0.091
							c-0.008,0.06-0.022,0.112-0.037,0.159c-0.011,0.021-0.019,0.041-0.026,0.057c-0.008,0.019-0.019,0.031-0.026,0.043
							c-0.016,0.022-0.024,0.033-0.024,0.033s0.005-0.014,0.01-0.039c0.004-0.015,0.01-0.027,0.012-0.047
							c0.003-0.018,0.007-0.039,0.011-0.061c0.002-0.021,0.006-0.045,0.008-0.069c0.003-0.026,0.001-0.053,0.005-0.079
							c0-0.057,0-0.116-0.006-0.175c-0.003-0.029-0.003-0.06-0.008-0.089c-0.003-0.028-0.005-0.058-0.008-0.085
							c-0.01-0.057-0.016-0.109-0.023-0.154C17.62,28.518,17.611,28.457,17.611,28.457z"/>
					</g>
					<g>
						<g>
							<path style="fill:#B7723C;" d="M15.974,28.62c0,0,0.011,0.017,0.027,0.046c0.017,0.031,0.041,0.073,0.065,0.127
								c0.024,0.054,0.049,0.117,0.07,0.188c0.01,0.036,0.023,0.071,0.031,0.109c0.007,0.038,0.016,0.076,0.023,0.114
								c0.006,0.039,0.012,0.078,0.015,0.118c0.006,0.035,0.006,0.075,0.012,0.11c0.003,0.072,0.008,0.14,0.013,0.197
								c0.002,0.029,0.004,0.054,0.004,0.078c0.003,0.024,0.003,0.044,0.008,0.061c0.005,0.032,0.008,0.053,0.008,0.053
								s-0.01-0.018-0.024-0.049c-0.007-0.016-0.012-0.036-0.02-0.059c-0.007-0.022-0.017-0.049-0.021-0.077
								c-0.014-0.058-0.028-0.125-0.037-0.196c-0.012-0.071-0.021-0.146-0.035-0.223c-0.024-0.149-0.06-0.299-0.088-0.411
								c-0.015-0.055-0.026-0.103-0.035-0.135C15.978,28.638,15.974,28.62,15.974,28.62z"/>
						</g>
					</g>
				</g>
				<g style="opacity:0.7;">
					<path style="fill:#ECC5AA;" d="M18.052,28.316c-0.194-0.919-0.557-1.165-0.57-1.333c-0.011-0.159,0.182-2.514-0.171-4.184
						c-0.771-0.138-1.378,0.134-1.66,0.297c0.109,0.533,0.376,1.883,0.445,2.668c0.053,0.583,0.13,1.322,0,1.633
						c-0.129,0.31-0.44,0.69-0.388,1.298c0.051,0.606,0.459,0.541,0.459,0.541s-0.007,0.739,0.253,0.79
						c0.258,0.051,0.362-0.259,0.362-0.259s0.351,0.31,0.597-0.312c0,0,0.103,0.22,0.349-0.182
						C17.728,29.274,18.246,29.235,18.052,28.316z M17.811,28.932c-0.028-0.394-0.199-0.506-0.199-0.506
						c0.22,0.713-0.162,1.217-0.136,0.829c0.026-0.389-0.253-0.687-0.253-0.687c0.338,0.842-0.22,1.432-0.245,0.881
						c-0.026-0.551-0.317-0.738-0.317-0.738c0.341,1.176-0.146,1.32-0.253,0.51c-0.107-0.811-0.558-0.568-0.493-0.919
						c0.065-0.35,0.546-0.958,0.6-1.061c0.056-0.105,0.079-0.829-0.262-2.837c-0.315-1.853,0.993-1.918,1.116-0.427
						c0.124,1.488-0.132,2.854-0.062,3.05c0.072,0.193,0.396,0.416,0.576,1.048C18.104,28.844,17.84,29.326,17.811,28.932z"/>
				</g>
				<path style="opacity:0.7;fill:#F9CDA7;" d="M16.803,23.518c0.18,0.604,0.305,2.597,0.208,3.45
					c-0.1,0.856,0.419-0.362,0.296-2.317C17.185,22.693,16.589,22.798,16.803,23.518z"/>
			</g>
		</g>
		<g>
			<g>
				<path style="fill:#FCD5B7;" d="M8.189,21.733c-0.301-0.457-0.534-0.612-0.534-0.612l-0.197,0.123L7.055,21.51
					c0,0-0.517-1.265-0.933-1.763c0,0,0.37-0.051,0.442-0.312c0.07-0.259,0-0.858,0.342-1.288c0.156-0.192,0.344-0.451,0.181-0.569
					c-0.161-0.116-0.801,0.245-0.886,0.771c0,0-0.123-0.771-0.202-1.108c-0.077-0.337-0.206-0.583-0.375-0.498
					c-0.168,0.084-0.11,0.946-0.028,1.48c0,0-0.302-0.588-0.575-1.107c-0.27-0.517-0.618-0.537-0.673-0.283
					c-0.031,0.144,0.727,1.548,0.727,1.548s-0.889-1.01-1.121-1.191c-0.233-0.182-0.402,0.046-0.117,0.531
					c0.284,0.485,0.688,1.049,0.688,1.049s-0.502-0.316-0.839-0.577c-0.336-0.259-0.832-0.058-0.491,0.229
					c0.346,0.284,0.714,0.491,0.837,0.581c0.123,0.092-0.008,0.241,0.239,0.641c0.246,0.402,0.603,0.598,0.81,0.545
					c0,0,0.453,1.322,1.011,2.209C6.648,23.283,7,23.376,7.644,22.998c0.505-0.294,0.694-0.465,0.694-0.465l0.113-0.132
					C8.451,22.401,8.491,22.188,8.189,21.733z"/>
				<g>
					<path style="fill:#B7723C;" d="M8.227,21.732C8.068,21.51,7.91,21.28,7.688,21.114c-0.017-0.01-0.051-0.016-0.067-0.004
						c-0.275,0.172-0.477,0.508-0.63,0.157c-0.071-0.162-0.663-1.543-0.79-1.518c0.262-0.054,0.385-0.214,0.428-0.465
						c0.073-0.438,0.063-0.723,0.315-1.131c0.026-0.042,0.275-0.333,0.241-0.422c-0.164-0.434-0.626-0.017-0.838,0.206
						c-0.136,0.145-0.097,0.482-0.143,0.202c-0.049-0.301-0.102-0.599-0.165-0.896c-0.074-0.347-0.118-0.483-0.415-0.517
						c-0.011-0.001-0.03-0.001-0.039,0.007c-0.103,0.143-0.097,0.278-0.108,0.455c-0.001,0.171,0.004,0.345,0.018,0.518
						c0.008,0.116,0.234,0.7,0.014,0.274c-0.214-0.415-0.426-1.219-0.968-1.322c-0.593-0.11,0.317,1.391,0.375,1.501
						c0.051,0.097,0.257,0.289,0.101,0.113c-0.175-0.199-0.355-0.396-0.535-0.592c-0.133-0.146-0.42-0.578-0.667-0.568
						c-0.186,0.005-0.209,0.194-0.137,0.351c0.188,0.406,0.438,0.771,0.691,1.144c0.25,0.367-0.298-0.166-0.432-0.261
						c-0.474-0.328-1.322-0.342-0.52,0.277c0.313,0.239,0.591,0.34,0.69,0.76c0.07,0.306,0.319,0.521,0.547,0.708
						c0.055,0.045,0.159,0.103,0.245,0.104c0.259,0.01,0.306,0.438,0.391,0.647c0.233,0.591,0.87,2.542,1.808,2.378
						c0.462-0.081,0.899-0.359,1.253-0.663C8.639,22.315,8.388,22.004,8.227,21.732c-0.011-0.021-0.086-0.017-0.076,0.001
						c0.146,0.252,0.375,0.536,0.149,0.792c-0.514,0.586-1.476,0.785-1.993,0.137c-0.555-0.697-0.896-1.64-1.188-2.476
						c-0.005-0.009-0.028-0.013-0.037-0.013c-1.036-0.04-0.616-0.91-1.15-1.265c-0.066-0.044-0.134-0.086-0.201-0.129
						c-0.368-0.143-0.323-0.283,0.138-0.422c0.199,0.148,0.412,0.283,0.62,0.418c0.011,0.007,0.089,0.014,0.074-0.007
						c-0.132-0.185-0.258-0.373-0.382-0.562c-0.069-0.104-0.701-1.399-0.173-0.936c0.375,0.333,0.696,0.734,1.027,1.11
						c0.013,0.016,0.09,0.02,0.076-0.002c-0.191-0.357-0.376-0.718-0.551-1.083c-0.305-0.638,0.413-0.195,0.587,0.135
						c0.138,0.265,0.273,0.526,0.409,0.791c0.008,0.017,0.08,0.023,0.077,0.002c-0.034-0.26-0.059-0.517-0.075-0.779
						c0.002,0.024-0.006-0.959,0.308-0.499c0.221,0.32,0.232,1.009,0.295,1.399c0.003,0.024,0.072,0.029,0.08,0.008
						c0.069-0.295,0.231-0.52,0.49-0.675c0.095,0.086,0.193,0.17,0.29,0.254c-0.11,0.138-0.207,0.284-0.292,0.436
						c-0.247,0.399,0.034,1.228-0.626,1.365c-0.005,0.002-0.027,0.007-0.02,0.017c0.399,0.53,0.68,1.151,0.933,1.761
						c0.008,0.021,0.057,0.019,0.072,0.011c0.585-0.387,0.588-0.448,1.062,0.212C8.163,21.754,8.239,21.746,8.227,21.732z"/>
				</g>
			</g>
			<g>
				<g style="opacity:0.7;">
					<path style="fill:#ECC5AA;" d="M4.74,17.346c-0.198-0.34-0.27-0.546-0.265-0.664c-0.064,0.02-0.109,0.071-0.128,0.151
						c-0.031,0.144,0.727,1.548,0.727,1.548l0.233,0.249C5.255,18.493,5.139,18.035,4.74,17.346z"/>
				</g>
				<g style="opacity:0.7;">
					<path style="fill:#ECC5AA;" d="M5.728,16.733c-0.032-0.012-0.067-0.008-0.103,0.01c-0.168,0.084-0.11,0.946-0.028,1.48
						l0.166,0.407C5.695,18.047,5.675,17.135,5.728,16.733z"/>
				</g>
				<g style="opacity:0.7;">
					<path style="fill:#ECC5AA;" d="M4.095,17.808c-0.295-0.385-0.36-0.581-0.313-0.677c-0.12,0.027-0.148,0.242,0.056,0.59
						c0.284,0.485,0.688,1.049,0.688,1.049c0.081,0.053,0.254,0.092,0.254,0.092S4.634,18.513,4.095,17.808z"/>
				</g>
				<g style="opacity:0.7;">
					<path style="fill:#ECC5AA;" d="M8.189,21.733c-0.301-0.457-0.534-0.612-0.534-0.612l-0.197,0.123L7.055,21.51
						c0,0-0.517-1.265-0.933-1.763c0,0,0.37-0.051,0.442-0.312c0.07-0.259,0-0.858,0.342-1.288c0.156-0.192,0.344-0.451,0.181-0.569
						c-0.028-0.021-0.072-0.026-0.124-0.019c0.047,0.127-0.078,0.336-0.244,0.483c-0.247,0.222-0.233,0.416-0.272,1.023
						c-0.039,0.608-0.576,0.655-0.576,0.655c0.813,0.66,1.328,2.525,1.328,2.525c0.043-0.291-0.053-0.726-0.053-0.726
						c0.361-0.246,0.738-0.278,0.874,0.337c0.136,0.617-0.573,0.829-0.97,0.771c-0.396-0.059-1.005-0.912-1.375-1.76
						c-0.368-0.851-0.317-0.811-0.524-0.824c-0.208-0.013-0.848-0.351-0.784-0.979c0.01-0.098-0.472-0.315-0.815-0.582
						c-0.212-0.164-0.35-0.301-0.355-0.387c-0.131,0.052-0.179,0.176-0.003,0.323c0.346,0.284,0.714,0.491,0.837,0.581
						c0.123,0.092-0.008,0.241,0.239,0.641c0.246,0.402,0.603,0.598,0.81,0.545c0,0,0.453,1.322,1.011,2.209
						C6.648,23.283,7,23.376,7.644,22.998c0.505-0.294,0.694-0.465,0.694-0.465l0.113-0.132C8.451,22.401,8.491,22.188,8.189,21.733
						z"/>
				</g>
			</g>
			<path style="opacity:0.7;fill:#F9CDA7;" d="M5.847,19.819c0,0,0.991,0.793,1.284,2.376C7.131,22.195,6.741,21.142,5.847,19.819z"
				/>
			<g>
				<path style="fill:#B7723C;" d="M6.904,21.159c0,0,0.042,0.054,0.087,0.146c0.025,0.045,0.048,0.101,0.074,0.16
					c0.022,0.06,0.046,0.124,0.063,0.189c0.009,0.033,0.018,0.066,0.027,0.1c0.008,0.033,0.015,0.064,0.018,0.096
					c0.011,0.065,0.021,0.123,0.023,0.175c0.006,0.104,0.002,0.171,0.002,0.171s-0.024-0.065-0.047-0.163
					c-0.012-0.049-0.03-0.106-0.046-0.167c-0.015-0.062-0.035-0.125-0.053-0.188c-0.016-0.064-0.039-0.129-0.056-0.189
					c-0.019-0.059-0.035-0.116-0.049-0.165C6.922,21.226,6.904,21.159,6.904,21.159z"/>
			</g>
		</g>
	</g>
	<g>
		<g>
			<g>
				<g>
					<path style="fill:#FCD1B3;" d="M20.138,12.38c-0.22,1.891-1.883,1.496-1.883,1.496c0.058-0.396-0.188-1.062-0.088-2.3
						C18.778,10.535,20.209,10.888,20.138,12.38z"/>
					<g>
						<path style="fill:#9F593A;" d="M20.197,12.374c-0.079,0.607-0.335,1.244-1.054,1.475c-0.281,0.094-0.634,0.113-0.929,0.044
							c-0.009-0.001-0.021-0.006-0.021-0.013c0.056-0.419-0.069-0.867-0.099-1.288c-0.01-0.154-0.012-0.309-0.012-0.464
							c0-0.142-0.048-0.432,0.025-0.552c0.122-0.196,0.272-0.36,0.489-0.485c0.303-0.176,0.701-0.172,1.012-0.01
							C20.108,11.342,20.21,11.922,20.197,12.374c0,0.031-0.119,0.036-0.119,0.013c0.014-0.374-0.048-0.752-0.308-1.061
							c-0.24-0.294-0.663-0.411-1.041-0.241c-0.188,0.087-0.326,0.235-0.439,0.383c-0.15,0.207-0.091,0.573-0.089,0.81
							c0.004,0.378,0.054,0.752,0.097,1.127c0.012,0.122,0.025,0.245,0.023,0.366c-0.004,0.066-0.056,0.081,0.017,0.095
							c0.168,0.03,0.341,0.027,0.513,0.006c0.84-0.104,1.146-0.858,1.228-1.484C20.082,12.352,20.2,12.351,20.197,12.374z"/>
					</g>
				</g>
			</g>
			<g>
				<g>
					<path style="fill:#9F593A;" d="M19.7,12.257c0,0,0.004-0.036,0.005-0.095c0-0.034-0.005-0.068-0.015-0.113
						c-0.01-0.045-0.03-0.089-0.065-0.14c-0.013-0.025-0.039-0.045-0.061-0.07c-0.012-0.009-0.022-0.023-0.034-0.034
						c-0.015-0.009-0.033-0.016-0.048-0.026l-0.051-0.025c-0.014-0.008-0.035-0.014-0.056-0.018l-0.06-0.019
						c-0.02-0.003-0.042-0.003-0.063-0.005l-0.065-0.001l-0.06,0.01l-0.066,0.016L19,11.763l-0.058,0.026
						c-0.018,0.011-0.033,0.025-0.05,0.035c-0.032,0.027-0.071,0.05-0.095,0.081c-0.021,0.032-0.052,0.061-0.07,0.092
						c-0.02,0.034-0.037,0.067-0.056,0.1c-0.018,0.031-0.026,0.067-0.038,0.099c-0.01,0.034-0.021,0.069-0.03,0.103
						c-0.012,0.064-0.015,0.131-0.021,0.189c-0.002,0.062,0.007,0.12,0.009,0.171c0.001,0.054,0.007,0.1,0.016,0.143
						c0.015,0.042,0.021,0.078,0.027,0.107c0.014,0.058,0.024,0.091,0.024,0.091s0-0.033,0-0.093c0-0.033,0-0.069,0-0.109
						c-0.001-0.043,0-0.087,0.011-0.142c0.003-0.048,0.003-0.104,0.01-0.159c0.014-0.057,0.024-0.12,0.04-0.177
						c0.024-0.06,0.038-0.127,0.07-0.18c0.017-0.028,0.032-0.057,0.048-0.087c0.021-0.028,0.041-0.049,0.063-0.074
						c0.02-0.029,0.049-0.047,0.075-0.069C18.989,11.9,19,11.89,19.014,11.881l0.048-0.023l0.042-0.023l0.05-0.011l0.051-0.011
						h0.048c0.016,0,0.033,0,0.047,0l0.047,0.009c0.018,0.002,0.03,0.006,0.047,0.01l0.039,0.017l0.04,0.019
						c0.014,0.009,0.022,0.018,0.033,0.025c0.022,0.018,0.048,0.033,0.06,0.054c0.029,0.036,0.061,0.074,0.075,0.113
						c0.021,0.036,0.034,0.07,0.038,0.103C19.692,12.221,19.7,12.257,19.7,12.257z"/>
				</g>
				<g>
					<path style="fill:#9F593A;" d="M19.438,12.606c0,0-0.018,0.014-0.041,0.034c-0.01,0.014-0.032,0.019-0.049,0.029
						c-0.02,0.01-0.043,0.017-0.066,0.022c-0.026,0.005-0.057,0.007-0.086,0.005c-0.026-0.002-0.056-0.009-0.089-0.017
						c-0.031-0.008-0.056-0.023-0.088-0.037c-0.029-0.02-0.062-0.033-0.082-0.058c-0.028-0.018-0.046-0.044-0.069-0.063
						c-0.013-0.027-0.041-0.052-0.052-0.079c-0.012-0.024-0.028-0.052-0.038-0.079c-0.006-0.026-0.016-0.049-0.022-0.076
						c-0.004-0.024-0.011-0.045-0.014-0.065c-0.006-0.022-0.008-0.037-0.008-0.054c-0.003-0.029-0.008-0.048-0.008-0.048
						s-0.007,0.017-0.02,0.046c-0.011,0.027-0.022,0.074-0.025,0.127c-0.008,0.028-0.004,0.059,0.003,0.088
						c0.002,0.03,0.013,0.065,0.024,0.1c0.011,0.035,0.033,0.064,0.055,0.1c0.024,0.029,0.047,0.063,0.083,0.086
						c0.029,0.03,0.072,0.049,0.109,0.071c0.041,0.015,0.081,0.029,0.122,0.037c0.043,0.008,0.087,0.008,0.125,0.006
						c0.02-0.004,0.037-0.006,0.058-0.012c0.014-0.006,0.033-0.011,0.048-0.018c0.03-0.014,0.055-0.03,0.071-0.047
						c0.017-0.019,0.034-0.038,0.037-0.053C19.43,12.621,19.438,12.606,19.438,12.606z"/>
				</g>
			</g>
			<g>
				<g style="opacity:0.7;">
					<path style="fill:#E7B89A;" d="M18.167,11.576c0.308-0.521,0.822-0.695,1.251-0.544c-0.341-0.039-0.603,0.101-0.703,0.209
						c-0.156,0.171-0.005,0.351,0.447,0.358c0.448,0.009,0.824,0.555,0.448,1.139c-0.37,0.581-0.619,0.592-0.768,0.609
						c-0.433,0.056-0.003,0.522,0.566,0.356c-0.533,0.318-1.154,0.172-1.154,0.172C18.313,13.481,18.066,12.814,18.167,11.576z"/>
				</g>
			</g>
		</g>
		<g>
			<g>
				<g>
					<g>
						<g>
							<path style="fill:#FCD1B3;" d="M4.653,13.173c0.166,1.669,1.427,1.321,1.427,1.321c-0.046-0.35,0.142-0.938,0.065-2.032
								C5.683,11.545,4.599,11.856,4.653,13.173z"/>
							<g>
								<path style="fill:#9F593A;" d="M4.608,13.168c0.061,0.535,0.253,1.097,0.797,1.302c0.214,0.082,0.481,0.1,0.704,0.039
									c0.006-0.001,0.017-0.006,0.017-0.012c-0.043-0.371,0.053-0.766,0.075-1.137c0.006-0.137,0.008-0.274,0.008-0.411
									c0-0.124,0.036-0.38-0.02-0.487c-0.092-0.173-0.206-0.317-0.37-0.427c-0.229-0.155-0.531-0.151-0.767-0.009
									C4.677,12.256,4.598,12.768,4.608,13.168c0,0.027,0.089,0.032,0.089,0.011c-0.009-0.33,0.037-0.663,0.233-0.937
									c0.183-0.26,0.502-0.362,0.789-0.212c0.142,0.076,0.247,0.207,0.332,0.338c0.114,0.182,0.069,0.506,0.067,0.714
									c-0.003,0.334-0.039,0.664-0.072,0.995c-0.011,0.108-0.019,0.216-0.018,0.323c0.003,0.057,0.042,0.071-0.014,0.084
									c-0.127,0.026-0.259,0.024-0.388,0.005c-0.635-0.092-0.868-0.758-0.931-1.311C4.694,13.149,4.606,13.146,4.608,13.168z"/>
							</g>
						</g>
					</g>
					<g>
						<g>
							<path style="fill:#9F593A;" d="M4.984,13.064c0,0-0.003-0.031-0.004-0.084c0-0.03,0.004-0.059,0.013-0.1
								c0.006-0.039,0.023-0.079,0.047-0.123c0.009-0.023,0.031-0.04,0.047-0.062c0.009-0.008,0.016-0.021,0.026-0.03
								c0.011-0.008,0.025-0.015,0.035-0.024l0.039-0.022c0.011-0.007,0.027-0.012,0.041-0.017l0.046-0.016
								c0.016-0.002,0.032-0.002,0.049-0.004l0.049-0.001l0.046,0.009l0.05,0.013l0.047,0.023l0.043,0.023
								c0.015,0.011,0.026,0.023,0.039,0.032c0.024,0.024,0.053,0.043,0.069,0.071c0.018,0.027,0.04,0.053,0.056,0.081
								c0.013,0.03,0.027,0.059,0.042,0.088c0.014,0.026,0.019,0.059,0.028,0.087C5.8,13.04,5.808,13.07,5.814,13.1
								c0.01,0.058,0.012,0.116,0.017,0.167c0.002,0.056-0.005,0.107-0.006,0.151c-0.001,0.047-0.006,0.089-0.014,0.126
								c-0.01,0.037-0.014,0.068-0.02,0.095c-0.011,0.052-0.018,0.08-0.018,0.08s0-0.028,0-0.082c0-0.029,0-0.061,0-0.097
								c0.001-0.037,0-0.077-0.007-0.124c-0.003-0.043-0.003-0.092-0.01-0.142c-0.01-0.05-0.018-0.104-0.029-0.156
								c-0.019-0.052-0.028-0.11-0.053-0.158c-0.013-0.025-0.025-0.05-0.037-0.076c-0.015-0.024-0.031-0.043-0.048-0.066
								c-0.014-0.025-0.037-0.041-0.058-0.061c-0.009-0.008-0.018-0.018-0.028-0.025l-0.036-0.02l-0.032-0.019l-0.037-0.01
								l-0.037-0.01H5.324c-0.013,0-0.025,0-0.036,0l-0.036,0.008c-0.012,0.002-0.023,0.005-0.034,0.009l-0.03,0.016l-0.03,0.016
								c-0.01,0.008-0.017,0.016-0.025,0.023c-0.016,0.017-0.036,0.028-0.045,0.047c-0.023,0.033-0.047,0.066-0.058,0.101
								c-0.015,0.032-0.025,0.061-0.028,0.091C4.991,13.032,4.984,13.064,4.984,13.064z"/>
						</g>
						<g>
							<path style="fill:#9F593A;" d="M5.183,13.371c0,0,0.014,0.013,0.031,0.03c0.008,0.013,0.024,0.017,0.036,0.025
								c0.015,0.009,0.033,0.015,0.051,0.019c0.02,0.004,0.041,0.006,0.063,0.004c0.022-0.002,0.043-0.008,0.067-0.015
								c0.024-0.007,0.044-0.02,0.067-0.032c0.022-0.018,0.046-0.029,0.063-0.05c0.021-0.017,0.035-0.038,0.052-0.058
								c0.011-0.024,0.031-0.045,0.04-0.069c0.009-0.021,0.021-0.045,0.028-0.069c0.005-0.024,0.013-0.044,0.018-0.067
								c0.003-0.021,0.007-0.04,0.01-0.058c0.004-0.02,0.006-0.032,0.006-0.048c0.003-0.026,0.007-0.043,0.007-0.043
								s0.004,0.016,0.013,0.041c0.01,0.025,0.019,0.065,0.021,0.112c0.006,0.024,0.002,0.052-0.002,0.078
								c-0.002,0.027-0.01,0.058-0.02,0.087c-0.008,0.031-0.024,0.058-0.04,0.089c-0.019,0.025-0.037,0.055-0.063,0.075
								c-0.022,0.026-0.054,0.043-0.083,0.063c-0.03,0.014-0.06,0.026-0.093,0.033c-0.031,0.007-0.065,0.007-0.093,0.005
								c-0.017-0.003-0.03-0.005-0.044-0.01C5.306,13.51,5.292,13.506,5.28,13.5c-0.023-0.013-0.041-0.028-0.055-0.043
								c-0.012-0.017-0.025-0.033-0.027-0.046C5.189,13.386,5.183,13.371,5.183,13.371z"/>
						</g>
					</g>
					<g>
						<g style="opacity:0.7;">
							<path style="fill:#E7B89A;" d="M6.146,12.462c-0.233-0.46-0.622-0.612-0.947-0.479c0.258-0.035,0.456,0.09,0.532,0.186
								c0.118,0.149,0.003,0.309-0.338,0.315c-0.341,0.009-0.624,0.489-0.341,1.006c0.28,0.513,0.47,0.522,0.581,0.537
								c0.328,0.05,0.002,0.462-0.429,0.315c0.404,0.28,0.876,0.152,0.876,0.152C6.034,14.145,6.222,13.556,6.146,12.462z"/>
						</g>
					</g>
				</g>
				<g>
					<g>
						<path style="fill:#FCD1B3;" d="M18.448,11.888c-0.291-1.389-1.129-2.609-0.997-2.177c0.133,0.432,0,0.831,0,0.831
							c-1.021-0.347-1.615-1.189-1.756-1.409c0.17,0.291,0.367,0.893,0.367,0.893c-1.93,0.139-3.263-1.28-3.263-1.28
							c0.137,0.797,0.846,1.099,0.846,1.099c-2.763,0.439-3.024-0.962-3.024-0.962c-0.05,0.772,0.497,1.031,0.497,1.031
							C10.26,9.901,9.898,9.278,9.898,9.278c0,0.798,0.761,1.097,0.761,1.097c-3.187,0.598-3.163-1.731-3.163-1.731
							c-0.448,1.147,0,1.831,0,1.831c-1.108-0.137-1.108-1.258-1.108-1.258c-0.387,0.486-0.523,1.146-0.308,2.64
							c0.216,1.495-0.056,2.227,0,2.638c0,0,0.96,3.356,6.176,3.484c4.067,0.099,5.994-3.039,5.994-3.039
							C18.598,14.26,18.697,13.066,18.448,11.888z"/>
						<g>
							<path style="fill:#9F593A;" d="M18.491,11.88c-0.164-0.749-0.446-1.579-0.92-2.195c-0.028-0.033-0.14-0.142-0.176-0.049
								c-0.008,0.018,0,0.042,0.006,0.059c0.026,0.113,0.051,0.218,0.063,0.335c0.016,0.17-0.005,0.352-0.056,0.515
								c0.025-0.006,0.054-0.015,0.08-0.018c-0.716-0.255-1.339-0.769-1.751-1.406c-0.012-0.021-0.099-0.003-0.084,0.024
								c0.155,0.278,0.264,0.586,0.364,0.889c0.017-0.01,0.035-0.018,0.052-0.027c-1.161,0.072-2.422-0.421-3.228-1.274
								c-0.015-0.015-0.091-0.007-0.086,0.019c0.092,0.469,0.391,0.868,0.815,1.091c0.013,0.004,0.024,0.01,0.037,0.015
								c-0.081-0.035-0.186,0-0.273,0.011C13.114,9.896,12.893,9.91,12.67,9.91c-0.317,0.002-0.635-0.034-0.941-0.117
								c-0.427-0.12-0.971-0.438-1.063-0.919c-0.006-0.024-0.089-0.012-0.089,0.016c-0.017,0.394,0.123,0.854,0.505,1.04
								c0.019-0.012,0.039-0.022,0.056-0.034c-0.454-0.015-0.953-0.218-1.196-0.629C9.931,9.25,9.854,9.261,9.854,9.287
								C9.862,9.629,10,9.921,10.251,10.151c0.078,0.069,0.167,0.13,0.259,0.183c0.026,0.016,0.058,0.032,0.087,0.046
								c0.007,0.003,0.015,0.007,0.022,0.009c-0.062-0.024-0.108-0.006-0.175,0.005c-0.703,0.111-1.487,0.105-2.107-0.29
								C7.861,9.801,7.535,9.208,7.54,8.637c0-0.023-0.081-0.008-0.088,0.012c-0.207,0.547-0.34,1.306,0.001,1.839
								c0.023-0.01,0.048-0.019,0.073-0.03C6.891,10.366,6.436,9.854,6.432,9.21c0-0.024-0.075-0.007-0.084,0.005
								c-0.511,0.655-0.444,1.54-0.356,2.318c0.069,0.611,0.148,1.205,0.118,1.82c-0.015,0.34-0.077,0.678-0.081,1.017
								c-0.002,0.191,0.093,0.369,0.178,0.538c0.191,0.386,0.444,0.738,0.735,1.057c1.066,1.171,2.618,1.744,4.158,1.946
								c1.93,0.257,3.853-0.084,5.458-1.221c0.608-0.43,1.159-0.957,1.601-1.559c0.145-0.198,0.233-0.396,0.305-0.635
								C18.717,13.66,18.665,12.724,18.491,11.88c-0.004-0.025-0.093-0.011-0.09,0.014c0.136,0.662,0.178,1.339,0.098,2.008
								c-0.043,0.348-0.116,0.768-0.31,1.065c-0.198,0.306-0.441,0.584-0.693,0.847c-1.249,1.295-2.946,2.063-4.745,2.143
								c-1.857,0.081-3.891-0.374-5.32-1.617c-0.555-0.482-1.07-1.124-1.299-1.835c-0.057-0.174,0.002-0.411,0.02-0.59
								c0.061-0.548,0.073-1.094,0.024-1.647c-0.088-0.983-0.419-2.185,0.251-3.046c-0.028,0-0.058,0.002-0.084,0.003
								c0.005,0.662,0.479,1.177,1.123,1.269c0.012,0.001,0.09-0.001,0.072-0.03C7.201,9.939,7.336,9.181,7.54,8.642
								C7.51,8.646,7.479,8.649,7.452,8.652C7.448,9.057,7.621,9.481,7.876,9.791c0.658,0.81,1.857,0.77,2.785,0.602
								c0.007,0,0.064-0.023,0.034-0.032c-0.446-0.179-0.742-0.614-0.753-1.089C9.914,9.278,9.885,9.284,9.856,9.29
								c0.251,0.425,0.771,0.628,1.242,0.642c0.01,0,0.09-0.017,0.056-0.032c-0.373-0.186-0.506-0.643-0.489-1.026
								c-0.03,0.004-0.06,0.009-0.089,0.016c0.053,0.272,0.285,0.519,0.508,0.67c0.734,0.496,1.733,0.431,2.564,0.302
								c0.01,0,0.065-0.019,0.035-0.031c-0.439-0.194-0.747-0.632-0.839-1.092c-0.029,0.004-0.056,0.011-0.087,0.017
								c0.826,0.872,2.107,1.362,3.296,1.291c0.01,0,0.059-0.008,0.052-0.027c-0.099-0.305-0.209-0.614-0.367-0.898
								c-0.027,0.008-0.056,0.016-0.084,0.024c0.412,0.639,1.041,1.156,1.761,1.41c0.019,0.008,0.074,0.008,0.08-0.017
								c0.079-0.242,0.074-0.508,0.023-0.756c-0.01-0.045-0.026-0.089-0.035-0.135c-0.003-0.02-0.063-0.015-0.025,0.024
								c0.056,0.059,0.098,0.128,0.141,0.195c0.39,0.609,0.652,1.322,0.804,2.025C18.408,11.918,18.497,11.903,18.491,11.88z"/>
						</g>
					</g>
					<path style="opacity:0.7;fill:#E7B89A;" d="M10.057,16.185c0,0,1.227,0.196,2.44-0.106c1.211-0.303,1.26-0.599,1.005-0.504
						c-0.258,0.097,0.231-0.288,0.67-0.058c0.442,0.23,0.093,0.254-0.048,0.188c-0.142-0.066-0.399,0.591-0.873,1.029
						c-0.473,0.439-0.772,0.542-1.556,0.221C10.911,16.633,10.331,16.295,10.057,16.185z"/>
					<path style="opacity:0.7;fill:#E7B89A;" d="M18.448,11.888c-0.291-1.389-1.129-2.609-0.997-2.177c0.133,0.432,0,0.831,0,0.831
						c-1.021-0.347-1.615-1.189-1.756-1.409c0.17,0.291,0.367,0.893,0.367,0.893c-1.93,0.139-3.263-1.28-3.263-1.28
						c0.137,0.797,0.846,1.099,0.846,1.099c-2.763,0.439-3.024-0.962-3.024-0.962c-0.05,0.772,0.497,1.031,0.497,1.031
						C10.26,9.901,9.898,9.278,9.898,9.278c0,0.798,0.761,1.097,0.761,1.097c-3.187,0.598-3.163-1.731-3.163-1.731
						c-0.448,1.147,0,1.831,0,1.831c-1.108-0.137-1.108-1.258-1.108-1.258c-0.387,0.486-0.523,1.146-0.308,2.64
						c0.216,1.495-0.056,2.227,0,2.638c0,0,0.96,3.356,6.176,3.484c4.067,0.099,5.994-3.039,5.994-3.039
						C18.598,14.26,18.697,13.066,18.448,11.888z M12.589,17.829c-3.49,0.212-5.962-2.31-6.094-3.242
						c-0.132-0.931,0.015-1.302-0.066-2.511c-0.034-0.462,0.393-0.842,1.004-0.883c0.495-0.036,0.907,0.013,1.254,0.101
						c-0.995,0.26-1.299,1.849-1.061,2.493c0,0-0.335-0.014-0.599,0.084c0,0,1.192-0.139,1.979,1.153c0,0-0.025-0.128-0.128-0.368
						c-0.104-0.237,0.859,0.288,1.272-0.888c0.212-0.611,0.108-1.315-0.188-1.821c0.314,0.253,0.408,0.383,0.402-0.011
						c-0.018-0.898-0.365-1.214,0.031-1.076c0.399,0.137,1.528,0.343,1.3,0.183c-0.229-0.164-0.568-0.534,0.45-0.303
						c1.017,0.232,1.771-0.715,1.222,0.303c-0.547,1.015-0.33,1.125-0.063,0.894c0.124-0.108,0.348-0.367,0.668-0.6
						c-0.461,0.604-0.494,1.719-0.336,2.432c0.218,0.987,1.263,0.849,1.263,0.849c-0.321,0.327-0.344,0.601-0.344,0.601
						c0.774-1.075,2.569-1.131,2.569-1.131c-0.476-0.116-0.856-0.074-0.856-0.074c1.076-1.068-0.224-2.947-1.333-3.095
						c0.165-0.026,0.336-0.031,0.518-0.011c1.157,0.134,1.416,1.328,2.063,2.787C18.166,15.155,16.075,17.617,12.589,17.829z"/>
					<g>
						<g>
							<g>
								<defs>
									<path id="SVGID_1_" d="M10.483,12.801c-0.075-2.204-2.628-1.902-2.988-0.864c-0.24,0.688-0.161,1.487-0.08,1.946
										c0.317,0.043,0.887,0.215,1.416,0.858C9.407,14.713,10.539,14.449,10.483,12.801z"/>
								</defs>
								<clipPath id="SVGID_00000122678389115888848860000008864637064384287679_">
									<use xlink:href="#SVGID_1_"  style="overflow:visible;"/>
								</clipPath>
								<g style="clip-path:url(#SVGID_00000122678389115888848860000008864637064384287679_);">
									<g>
										<path style="fill:#9F6345;" d="M9.949,12.797c0,0-0.024-0.135-0.085-0.327c-0.025-0.099-0.071-0.21-0.121-0.323
											c-0.028-0.059-0.054-0.119-0.092-0.175c-0.029-0.06-0.071-0.114-0.112-0.166c-0.04-0.057-0.09-0.101-0.136-0.15
											c-0.026-0.022-0.053-0.042-0.076-0.064c-0.028-0.021-0.054-0.038-0.084-0.052c-0.058-0.029-0.108-0.065-0.168-0.081
											c-0.056-0.017-0.11-0.04-0.164-0.042c-0.053-0.007-0.101-0.017-0.144-0.021c-0.045,0-0.083,0-0.112,0.002
											c-0.066,0-0.101,0-0.101,0s0.034-0.005,0.099-0.016c0.031-0.003,0.069-0.009,0.114-0.013
											c0.043-0.002,0.094,0.002,0.151,0.005c0.054,0,0.113,0.019,0.176,0.036c0.063,0.012,0.123,0.044,0.184,0.075
											c0.035,0.017,0.061,0.036,0.091,0.056c0.027,0.023,0.056,0.044,0.087,0.064c0.049,0.053,0.102,0.102,0.147,0.158
											c0.039,0.058,0.083,0.115,0.112,0.177c0.038,0.06,0.063,0.124,0.089,0.183c0.028,0.061,0.044,0.12,0.064,0.176
											c0.015,0.057,0.029,0.111,0.04,0.162c0.023,0.101,0.03,0.185,0.035,0.245C9.949,12.763,9.949,12.797,9.949,12.797z"/>
										<g>
											<path style="fill:#FFFFFF;" d="M8.019,12.145c0,0-1.035,1.729,0.524,2.283c0.88,0.222,1.825-0.29,1.315-1.881
												C9.536,11.657,8.737,11.097,8.019,12.145z"/>
											<g>
												<path style="fill:#9F6345;" d="M9.747,13.188c-0.056,0.609-0.456,1.073-0.89,1.036c-0.436-0.035-0.742-0.56-0.685-1.166
													c0.057-0.611,0.456-1.075,0.888-1.038C9.496,12.057,9.803,12.578,9.747,13.188z"/>
												<g>
													<path style="fill:#A26B5C;" d="M9.557,13.213c-0.044,0.464-0.35,0.819-0.679,0.792
														c-0.332-0.027-0.566-0.429-0.524-0.892c0.043-0.467,0.347-0.819,0.68-0.791C9.365,12.349,9.6,12.749,9.557,13.213z"/>
												</g>
												<g>
													<path style="fill:#331E18;" d="M9.457,13.16c-0.032,0.367-0.273,0.648-0.534,0.626
														c-0.261-0.023-0.446-0.338-0.413-0.705c0.034-0.368,0.274-0.648,0.538-0.624C9.309,12.478,9.494,12.792,9.457,13.16z"
														/>
												</g>
												<g style="opacity:0.4;">
													<path style="fill:#446467;" d="M8.201,12.881c-0.014,0.059-0.022,0.116-0.028,0.177
														c-0.058,0.606,0.249,1.131,0.685,1.166c0.434,0.037,0.834-0.427,0.89-1.036c0.005-0.056,0.005-0.111,0.005-0.166
														C9.247,13.312,8.551,13.333,8.201,12.881z"/>
												</g>
												<path style="fill:#FFFFFF;" d="M8.87,12.848c-0.036,0.186-0.173,0.319-0.307,0.294
													c-0.134-0.026-0.214-0.197-0.179-0.385c0.037-0.188,0.171-0.318,0.307-0.295C8.822,12.486,8.904,12.658,8.87,12.848z"/>
												<path style="fill:#FFFFFF;" d="M8.664,13.423c-0.015,0.09-0.081,0.152-0.144,0.141c-0.063-0.013-0.1-0.097-0.085-0.184
													c0.019-0.089,0.082-0.151,0.147-0.14C8.644,13.251,8.681,13.333,8.664,13.423z"/>
											</g>
											<g>
												<path style="fill:#C2C1C1;" d="M9.858,12.547c-0.085-0.231-0.199-0.44-0.337-0.603c0.816,1.308,0.073,2.395-0.842,2.293
													c-0.774-0.086-0.951-0.79-0.992-1.079c-0.041,0.484,0.116,1.007,0.856,1.271C9.423,14.649,10.368,14.138,9.858,12.547z"
													/>
											</g>
											<path style="fill:#9F6345;" d="M8.019,12.145c-0.109,0.196-0.196,0.407-0.256,0.622
												c-0.058,0.216-0.092,0.441-0.064,0.662c0.006,0.056,0.014,0.111,0.03,0.166c0.011,0.055,0.031,0.106,0.052,0.158
												l0.036,0.077l0.043,0.071c0.032,0.049,0.064,0.096,0.105,0.137c0.037,0.043,0.082,0.08,0.124,0.119
												c0.048,0.033,0.094,0.07,0.145,0.099c0.049,0.031,0.104,0.056,0.154,0.08c0.055,0.024,0.11,0.044,0.165,0.067
												L8.55,14.402c0.057,0.01,0.113,0.021,0.173,0.029c0.058,0.003,0.116,0.012,0.173,0.012c0.116,0,0.233-0.009,0.342-0.037
												l0.082-0.023c0.027-0.012,0.051-0.023,0.077-0.032c0.053-0.022,0.1-0.053,0.147-0.083
												c0.093-0.061,0.169-0.142,0.231-0.227c0.033-0.045,0.054-0.094,0.083-0.142c0.022-0.049,0.037-0.1,0.057-0.15
												c0.025-0.104,0.049-0.213,0.05-0.321c0.011-0.109-0.007-0.219-0.011-0.327c-0.019-0.107-0.03-0.219-0.059-0.325
												c-0.033-0.109-0.049-0.211-0.096-0.317c-0.019-0.053-0.044-0.104-0.068-0.152c-0.023-0.051-0.052-0.101-0.08-0.149
												c-0.056-0.097-0.124-0.189-0.202-0.272c-0.037-0.046-0.083-0.078-0.124-0.117c-0.047-0.033-0.094-0.07-0.145-0.096
												c-0.103-0.057-0.22-0.085-0.339-0.088c-0.115,0.007-0.235,0.033-0.333,0.093l-0.075,0.043l-0.069,0.052l-0.066,0.05
												l-0.06,0.063C8.151,11.964,8.088,12.055,8.019,12.145z M8.019,12.145c0.069-0.09,0.131-0.184,0.214-0.264l0.059-0.061
												l0.067-0.054l0.068-0.055l0.076-0.042c0.099-0.061,0.219-0.089,0.336-0.099c0.12,0.002,0.24,0.028,0.346,0.084
												c0.056,0.023,0.104,0.061,0.153,0.093c0.043,0.039,0.092,0.072,0.13,0.118c0.082,0.081,0.155,0.175,0.215,0.272
												c0.031,0.047,0.062,0.097,0.085,0.149c0.027,0.049,0.055,0.102,0.073,0.152c0.052,0.103,0.074,0.217,0.108,0.325
												c0.033,0.106,0.05,0.219,0.07,0.328c0.005,0.113,0.023,0.224,0.014,0.338c0,0.112-0.022,0.227-0.05,0.336
												c-0.019,0.055-0.034,0.109-0.058,0.161c-0.028,0.049-0.053,0.104-0.084,0.151c-0.07,0.093-0.15,0.181-0.254,0.244
												c-0.051,0.034-0.102,0.064-0.16,0.085c-0.025,0.014-0.055,0.025-0.081,0.034l-0.089,0.025
												c-0.119,0.031-0.24,0.04-0.362,0.039c-0.062,0-0.122-0.011-0.184-0.016c-0.059-0.012-0.119-0.024-0.178-0.038H8.532
												H8.531c-0.055-0.025-0.111-0.045-0.166-0.071c-0.055-0.029-0.11-0.055-0.16-0.09c-0.051-0.031-0.098-0.069-0.146-0.106
												c-0.043-0.039-0.09-0.078-0.126-0.126c-0.041-0.042-0.072-0.092-0.104-0.144l-0.042-0.075l-0.034-0.079
												c-0.02-0.054-0.04-0.107-0.049-0.162c-0.013-0.057-0.021-0.113-0.025-0.169c-0.02-0.226,0.016-0.45,0.077-0.666
												C7.818,12.548,7.905,12.34,8.019,12.145z"/>
										</g>
									</g>
								</g>
							</g>
							<g>
								<path style="fill:#9F593A;" d="M7.161,13.873c0,0,0.033-0.008,0.091-0.014c0.059,0,0.146-0.005,0.248,0.009
									c0.048,0.009,0.104,0.015,0.162,0.028c0.057,0.015,0.116,0.029,0.178,0.052c0.123,0.04,0.246,0.102,0.364,0.171
									c0.057,0.041,0.114,0.077,0.167,0.115c0.055,0.043,0.105,0.083,0.153,0.126c0.046,0.047,0.089,0.091,0.132,0.132
									c0.038,0.041,0.073,0.084,0.106,0.126c0.034,0.038,0.061,0.076,0.083,0.11c0.022,0.033,0.043,0.063,0.058,0.088
									c0.033,0.049,0.051,0.079,0.051,0.079s-0.023-0.024-0.064-0.067c-0.019-0.021-0.045-0.046-0.073-0.076
									c-0.026-0.03-0.061-0.061-0.097-0.097c-0.038-0.033-0.076-0.072-0.117-0.111c-0.043-0.036-0.09-0.075-0.137-0.116
									c-0.046-0.039-0.1-0.076-0.151-0.113c-0.05-0.038-0.109-0.072-0.163-0.109c-0.056-0.032-0.112-0.067-0.17-0.095
									c-0.061-0.027-0.114-0.06-0.172-0.079c-0.057-0.025-0.114-0.044-0.168-0.063c-0.053-0.018-0.106-0.031-0.152-0.046
									c-0.097-0.023-0.179-0.037-0.237-0.044C7.194,13.874,7.161,13.873,7.161,13.873z"/>
							</g>
							<path style="opacity:0.7;fill:#FBC397;" d="M7.135,13.96c0.547-0.102,1.554,0.537,1.849,1.112
								C9.28,15.646,6.453,14.089,7.135,13.96z"/>
						</g>
						<g>
							<g>
								<defs>
									<path id="SVGID_00000159432643948439751980000006895600346563646128_" d="M16.437,11.943
										c-0.733-1.733-2.914-1.482-2.88,0.759c0.027,1.644,0.849,2.054,1.287,2.158c0.259-0.232,0.86-0.682,1.676-0.761
										C16.716,13.663,16.858,12.939,16.437,11.943z"/>
								</defs>
								<clipPath id="SVGID_00000042705811491700724750000000183162635606768037_">
									<use xlink:href="#SVGID_00000159432643948439751980000006895600346563646128_"  style="overflow:visible;"/>
								</clipPath>
								<g style="clip-path:url(#SVGID_00000042705811491700724750000000183162635606768037_);">
									<g>
										<path style="fill:#9F6345;" d="M13.848,12.661c0,0,0.019-0.153,0.075-0.375c0.025-0.111,0.068-0.239,0.119-0.374
											c0.028-0.063,0.056-0.132,0.092-0.2c0.034-0.065,0.077-0.129,0.12-0.191c0.04-0.066,0.095-0.12,0.143-0.179
											c0.03-0.024,0.058-0.049,0.087-0.073c0.025-0.026,0.056-0.049,0.087-0.066c0.063-0.038,0.122-0.08,0.186-0.099
											c0.063-0.027,0.123-0.053,0.183-0.061c0.058-0.01,0.112-0.024,0.161-0.031c0.051-0.002,0.093-0.004,0.128-0.007
											c0.073-0.002,0.111-0.003,0.111-0.003s-0.038-0.005-0.109-0.012c-0.037-0.003-0.081-0.006-0.13-0.009
											c-0.05,0-0.106,0.009-0.172,0.016c-0.063,0.002-0.126,0.026-0.193,0.049c-0.073,0.018-0.14,0.058-0.206,0.099
											c-0.037,0.017-0.068,0.039-0.099,0.067c-0.031,0.025-0.062,0.05-0.093,0.077c-0.054,0.06-0.112,0.12-0.158,0.186
											c-0.043,0.067-0.089,0.135-0.119,0.206c-0.037,0.07-0.064,0.14-0.089,0.212c-0.03,0.068-0.043,0.138-0.061,0.202
											c-0.014,0.064-0.029,0.126-0.037,0.184c-0.02,0.114-0.023,0.21-0.026,0.277C13.845,12.622,13.848,12.661,13.848,12.661z"
											/>
										<g>
											<path style="fill:#FFFFFF;" d="M15.989,11.813c0,0,1.268,1.893-0.462,2.61c-0.981,0.301-2.075-0.225-1.594-2.05
												C14.249,11.351,15.118,10.676,15.989,11.813z"/>
											<g>
												<path style="fill:#9F6345;" d="M14.243,13.138c0.099,0.685,0.573,1.185,1.06,1.118c0.491-0.065,0.806-0.673,0.709-1.357
													c-0.101-0.685-0.577-1.187-1.064-1.118C14.461,11.845,14.145,12.453,14.243,13.138z"/>
												<g>
													<path style="fill:#A26B5C;" d="M14.458,13.155c0.076,0.521,0.439,0.903,0.812,0.853
														c0.374-0.05,0.615-0.514,0.539-1.037c-0.075-0.519-0.438-0.903-0.813-0.855C14.626,12.168,14.384,12.632,14.458,13.155
														z"/>
												</g>
												<g>
													<path style="fill:#331E18;" d="M14.566,13.09c0.061,0.413,0.346,0.715,0.64,0.676c0.296-0.041,0.485-0.407,0.425-0.819
														c-0.057-0.413-0.346-0.715-0.639-0.676C14.695,12.312,14.505,12.678,14.566,13.09z"/>
												</g>
												<g style="opacity:0.4;">
													<path style="fill:#446467;" d="M15.97,12.702c0.017,0.064,0.03,0.129,0.042,0.196c0.097,0.684-0.218,1.292-0.709,1.357
														c-0.486,0.066-0.961-0.434-1.06-1.118c-0.01-0.064-0.016-0.128-0.016-0.189C14.813,13.248,15.599,13.233,15.97,12.702z
														"/>
												</g>
												<path style="fill:#FFFFFF;" d="M14.935,12.639c-0.044,0.185-0.186,0.31-0.318,0.278
													c-0.133-0.031-0.202-0.205-0.158-0.392c0.044-0.184,0.188-0.311,0.318-0.279C14.909,12.279,14.979,12.455,14.935,12.639
													z"/>
												<path style="fill:#FFFFFF;" d="M14.701,13.203c-0.018,0.088-0.087,0.146-0.149,0.131
													c-0.063-0.014-0.095-0.098-0.076-0.185c0.023-0.09,0.09-0.147,0.151-0.133C14.692,13.032,14.726,13.114,14.701,13.203z"
													/>
											</g>
											<g>
												<path style="fill:#C2C1C1;" d="M13.934,12.373c0.083-0.265,0.2-0.507,0.348-0.701c-0.847,1.526,0.054,2.708,1.079,2.541
													c0.87-0.14,1.033-0.946,1.061-1.272c0.07,0.542-0.076,1.142-0.894,1.482C14.546,14.724,13.452,14.198,13.934,12.373z"/>
											</g>
											<path style="fill:#9F6345;" d="M15.729,11.533l-0.071-0.064l-0.079-0.057L15.5,11.358l-0.089-0.045
												c-0.117-0.059-0.25-0.083-0.383-0.085c-0.133,0.011-0.263,0.049-0.376,0.12c-0.057,0.031-0.106,0.074-0.157,0.113
												c-0.044,0.049-0.096,0.09-0.135,0.141c-0.081,0.101-0.153,0.206-0.211,0.32c-0.03,0.056-0.06,0.113-0.083,0.172
												c-0.025,0.057-0.049,0.112-0.067,0.175c-0.049,0.121-0.06,0.241-0.09,0.365c-0.027,0.122-0.031,0.246-0.047,0.372
												c0.001,0.122-0.014,0.245,0.006,0.368c0.007,0.123,0.04,0.241,0.075,0.357c0.023,0.056,0.043,0.114,0.073,0.169
												c0.033,0.051,0.062,0.106,0.099,0.152c0.075,0.097,0.165,0.182,0.274,0.245c0.055,0.034,0.108,0.063,0.168,0.082
												c0.03,0.014,0.059,0.026,0.091,0.034l0.095,0.021c0.124,0.028,0.257,0.033,0.387,0.025
												c0.066-0.002,0.131-0.017,0.194-0.023c0.066-0.013,0.128-0.03,0.195-0.044l-0.005,0.001
												c0.061-0.029,0.123-0.053,0.181-0.084c0.058-0.032,0.117-0.062,0.171-0.101c0.059-0.035,0.105-0.079,0.159-0.118
												c0.044-0.048,0.093-0.091,0.134-0.142c0.041-0.05,0.074-0.104,0.108-0.158l0.044-0.087l0.036-0.088
												c0.022-0.06,0.041-0.12,0.052-0.183c0.013-0.061,0.02-0.125,0.023-0.188c0.019-0.252-0.032-0.504-0.111-0.744
												c-0.08-0.241-0.187-0.473-0.322-0.691C15.904,11.719,15.828,11.616,15.729,11.533z M16.321,12.498
												c0.08,0.241,0.132,0.492,0.125,0.749c-0.003,0.064-0.007,0.13-0.019,0.191c-0.012,0.064-0.026,0.126-0.049,0.186
												l-0.033,0.092l-0.043,0.091c-0.034,0.056-0.067,0.114-0.109,0.167c-0.039,0.054-0.089,0.101-0.136,0.148
												c-0.051,0.045-0.102,0.091-0.157,0.128c-0.055,0.043-0.114,0.077-0.175,0.109c-0.059,0.035-0.123,0.062-0.186,0.092
												h-0.001h-0.001c-0.068,0.018-0.133,0.037-0.198,0.052c-0.07,0.01-0.138,0.023-0.207,0.029
												c-0.136,0.008-0.276,0.004-0.409-0.024l-0.103-0.022c-0.031-0.009-0.063-0.023-0.095-0.034
												c-0.065-0.021-0.125-0.052-0.185-0.087c-0.117-0.067-0.217-0.16-0.3-0.264c-0.04-0.051-0.069-0.11-0.104-0.164
												c-0.028-0.059-0.05-0.12-0.074-0.179c-0.037-0.125-0.069-0.249-0.072-0.375c-0.021-0.128-0.005-0.256-0.005-0.382
												c0.018-0.127,0.027-0.253,0.058-0.38c0.031-0.119,0.054-0.249,0.102-0.366c0.02-0.061,0.046-0.121,0.075-0.18
												c0.024-0.06,0.057-0.117,0.088-0.173c0.063-0.114,0.14-0.223,0.226-0.32c0.042-0.053,0.095-0.093,0.143-0.14
												c0.055-0.04,0.105-0.081,0.166-0.113c0.114-0.071,0.25-0.106,0.385-0.112c0.134,0.002,0.27,0.025,0.386,0.089
												l0.088,0.044l0.079,0.059l0.08,0.056l0.072,0.064c0.096,0.085,0.171,0.188,0.256,0.283
												C16.126,12.029,16.237,12.26,16.321,12.498z"/>
										</g>
									</g>
								</g>
							</g>
							<g>
								<path style="fill:#9F593A;" d="M14.701,15.002c0,0,0.023-0.032,0.066-0.083c0.048-0.052,0.112-0.124,0.202-0.2
									c0.044-0.04,0.093-0.08,0.148-0.12c0.051-0.042,0.11-0.081,0.172-0.122c0.064-0.038,0.126-0.082,0.195-0.116
									c0.07-0.033,0.141-0.07,0.214-0.1c0.036-0.017,0.072-0.031,0.109-0.045c0.037-0.013,0.074-0.024,0.111-0.037
									c0.071-0.028,0.146-0.041,0.219-0.06c0.073-0.019,0.144-0.025,0.212-0.035c0.032-0.003,0.064-0.008,0.096-0.011
									c0.032,0,0.064-0.002,0.093-0.002c0.059-0.002,0.112-0.003,0.161-0.002c0.047,0.006,0.089,0.008,0.122,0.012
									c0.066,0.006,0.105,0.012,0.105,0.012s-0.039,0.005-0.106,0.008c-0.032,0.001-0.074,0.004-0.121,0.008
									c-0.046,0.003-0.1,0.011-0.155,0.019c-0.03,0.004-0.059,0.008-0.091,0.014c-0.031,0.004-0.06,0.01-0.094,0.019
									c-0.063,0.013-0.131,0.025-0.2,0.045c-0.068,0.019-0.141,0.037-0.212,0.066c-0.034,0.01-0.07,0.024-0.107,0.036
									c-0.034,0.013-0.068,0.031-0.105,0.044c-0.069,0.026-0.14,0.063-0.206,0.096c-0.069,0.031-0.132,0.07-0.194,0.104
									c-0.061,0.037-0.124,0.071-0.176,0.108c-0.058,0.037-0.108,0.069-0.156,0.106c-0.093,0.065-0.169,0.124-0.223,0.169
									C14.729,14.975,14.701,15.002,14.701,15.002z"/>
							</g>
							<path style="opacity:0.7;fill:#FBC397;" d="M14.696,15.252c0.131-0.377,1.404-1.271,2.286-1.056
								C17.865,14.414,14.343,16.263,14.696,15.252z"/>
						</g>
					</g>
					<g>
						<path style="fill:#9F593A;" d="M10.248,16.267c1.245,0.274,2.733,0.092,3.753-0.706c0.014-0.012-0.064-0.037-0.086-0.02
							c-0.986,0.774-2.431,0.96-3.639,0.694C10.237,16.227,10.188,16.255,10.248,16.267L10.248,16.267z"/>
					</g>
					<g>
						<path style="fill:#FFFFFF;" d="M10.483,16.29c0,0,0.306,0.066,0.789,0.304c0.487,0.236,1.163,0.617,1.769,0.106
							c0.371-0.313,0.531-0.678,0.706-0.996C12.567,16.498,11.045,16.372,10.483,16.29z"/>
						<g>
							<path style="fill:#9F593A;" d="M10.469,16.306c0.61,0.134,1.116,0.559,1.735,0.656c0.815,0.125,1.255-0.635,1.587-1.246
								c0.013-0.028-0.066-0.036-0.08-0.025c-0.942,0.617-2.131,0.739-3.226,0.582c-0.053-0.009-0.058,0.028-0.006,0.035
								c1.12,0.16,2.341,0.043,3.304-0.59c-0.026-0.008-0.051-0.015-0.078-0.023c-0.148,0.271-0.287,0.54-0.487,0.779
								c-0.343,0.407-0.788,0.543-1.3,0.382c-0.488-0.153-0.913-0.471-1.42-0.583C10.459,16.265,10.408,16.292,10.469,16.306z"/>
						</g>
					</g>
					<g>
						<path style="fill:#9F593A;" d="M13.701,15.541c0.161-0.029,0.331,0.014,0.463,0.105c0.019,0.013,0.104-0.007,0.075-0.025
							c-0.158-0.111-0.373-0.149-0.564-0.111C13.613,15.52,13.664,15.549,13.701,15.541L13.701,15.541z"/>
					</g>
					<g>
						<path style="fill:#9F593A;" d="M11.518,13.787c0,0-0.064,0.165-0.156,0.416c-0.048,0.125-0.099,0.273-0.15,0.429
							c-0.027,0.079-0.047,0.16-0.074,0.243c-0.025,0.082-0.038,0.169-0.058,0.254c-0.016-0.009,0.02,0.031,0.052,0.049
							c0.035,0.021,0.072,0.038,0.11,0.053c0.077,0.031,0.159,0.058,0.237,0.074c0.161,0.036,0.311,0.054,0.445,0.054
							c0.13,0.002,0.241-0.006,0.319-0.014c0.076-0.01,0.12-0.014,0.12-0.014s-0.011,0.003-0.029,0.008
							c-0.02,0.007-0.051,0.015-0.089,0.024c-0.076,0.018-0.186,0.043-0.321,0.051c-0.136,0.007-0.295,0.01-0.464-0.023
							c-0.083-0.015-0.169-0.037-0.253-0.069c-0.043-0.017-0.087-0.035-0.128-0.06c-0.019-0.014-0.042-0.027-0.06-0.047
							c-0.012-0.011-0.022-0.023-0.032-0.041c-0.005-0.006-0.011-0.036-0.01-0.036v-0.003v-0.002c0.003-0.019,0-0.006,0-0.009
							l0.003-0.003l0.002-0.008c0.022-0.088,0.035-0.179,0.062-0.262c0.028-0.086,0.056-0.17,0.086-0.246
							c0.058-0.159,0.124-0.302,0.183-0.423c0.053-0.121,0.107-0.218,0.145-0.289C11.493,13.826,11.518,13.787,11.518,13.787z"/>
					</g>
					<g style="opacity:0.7;">
						<path style="fill:#E7B89A;" d="M7.52,11.071c-0.048,0.188,1.276-0.369,2.665,0.917c0.073,0.066-0.054-0.953-1.023-1.538
							C8.192,9.867,7.593,10.781,7.52,11.071z"/>
					</g>
					<g>
						<path style="fill:#6E4436;" d="M7.674,10.981c-0.044,0.166,1.258-0.513,2.475,0.839c0.058,0.067-0.152-0.873-1.017-1.392
							C8.271,9.91,7.738,10.723,7.674,10.981z"/>
						<g>
							<path style="fill:#503022;" d="M7.63,10.987c-0.011,0.074,0.194,0.029,0.225,0.026c0.309-0.043,0.608-0.055,0.917,0.005
								c0.499,0.096,0.928,0.391,1.276,0.75c0.075,0.078,0.175,0.111,0.143-0.032c-0.146-0.633-0.717-1.268-1.335-1.46
								C8.35,10.12,7.772,10.485,7.63,10.983c-0.009,0.026,0.08,0.02,0.088-0.005c0.052-0.187,0.18-0.351,0.321-0.479
								c0.334-0.309,0.757-0.242,1.117-0.018c0.438,0.273,0.851,0.787,0.953,1.306c0.016,0.085-0.018-0.058,0.081,0.023
								c-0.083-0.066-0.153-0.159-0.233-0.233c-0.124-0.118-0.265-0.216-0.408-0.308c-0.265-0.165-0.563-0.266-0.869-0.31
								c-0.203-0.03-0.408-0.029-0.61-0.01c-0.037,0.004-0.356,0.055-0.352,0.025C7.72,10.955,7.633,10.959,7.63,10.987z"/>
						</g>
					</g>
					<g style="opacity:0.6;">
						<path style="fill:#6E4436;" d="M10.052,11.483c0.009,0.035,0.006,0.053-0.002,0.042c-1.081-1.2-2.233-0.658-2.276-0.759
							c-0.054,0.086-0.086,0.162-0.1,0.216c-0.044,0.166,1.258-0.513,2.475,0.839C10.172,11.849,10.15,11.7,10.052,11.483z"/>
					</g>
					<g style="opacity:0.7;">
						<path style="fill:#E7B89A;" d="M13.237,11.88c-0.044,0.092,0.795-0.87,1.827-1.013c0.443-0.061,0.856,0.114,1.153,0.279
							c0.297,0.166-0.387-0.982-0.991-0.992C14.621,10.145,13.774,10.733,13.237,11.88z"/>
					</g>
					<g>
						<path style="fill:#6E4436;" d="M13.306,11.675c-0.041,0.088,0.753-0.823,1.729-0.959c0.419-0.059,0.811,0.107,1.094,0.266
							c0.281,0.158-0.367-0.932-0.939-0.94C14.616,10.031,13.812,10.591,13.306,11.675z"/>
						<g>
							<path style="fill:#503022;" d="M13.263,11.665c-0.002,0.006-0.005,0.007,0,0.013c0.014,0.022,0.056,0.027,0.078,0.017
								c0.043-0.015,0.086-0.068,0.115-0.096c0.102-0.092,0.208-0.179,0.314-0.263c0.345-0.267,0.736-0.483,1.165-0.58
								c0.347-0.08,0.682,0.001,0.998,0.147c0.075,0.034,0.169,0.114,0.26,0.112c0.141-0.007-0.082-0.319-0.106-0.353
								c-0.295-0.429-0.713-0.739-1.244-0.595C14.101,10.274,13.573,11.01,13.263,11.665c-0.01,0.019,0.074,0.046,0.087,0.017
								c0.308-0.644,0.787-1.289,1.476-1.553c0.354-0.133,0.64-0.031,0.91,0.219c0.162,0.153,0.33,0.352,0.407,0.566
								c0.04,0.112-0.168-0.038-0.221-0.062c-0.16-0.072-0.327-0.122-0.501-0.151c-0.313-0.056-0.629,0.021-0.922,0.135
								c-0.294,0.11-0.563,0.285-0.814,0.475c-0.1,0.075-0.194,0.159-0.287,0.241c-0.035,0.03-0.084,0.095-0.129,0.11
								c0.027,0.008,0.054,0.013,0.08,0.019h0.001C13.356,11.659,13.271,11.639,13.263,11.665z"/>
						</g>
					</g>
					<g style="opacity:0.6;">
						<path style="fill:#6E4436;" d="M15.905,10.485c0.086,0.142,0.107,0.237,0.017,0.188c-0.24-0.134-0.57-0.274-0.928-0.226
							c-0.769,0.104-1.402,0.773-1.467,0.814c-0.08,0.13-0.153,0.266-0.222,0.413c-0.041,0.088,0.753-0.823,1.729-0.959
							c0.419-0.059,0.811,0.107,1.094,0.266C16.284,11.07,16.154,10.77,15.905,10.485z"/>
					</g>
					<path style="opacity:0.7;fill:#E7B89A;" d="M11.186,14.571c0,0-0.181,0.373,0.281,0.561c0.463,0.186,0.96-0.175,1.095,0
						c0.138,0.173-0.247,0.469-1.02,0.385C10.771,15.43,10.901,15.049,11.186,14.571z"/>
					<path style="opacity:0.7;fill:#FBC397;" d="M11.967,17.209c0.533,0.138,0.794,0.087,1.155-0.068
						c0.362-0.153,0.106,0.53-0.532,0.542C11.951,17.697,11.628,17.124,11.967,17.209z"/>
					<path style="opacity:0.7;fill:#FBC397;" d="M11.244,14.756c0.048-0.546,0.439-1.25,0.621-1.583
						c0.183-0.332-0.133,0.713-0.17,1.352C11.659,15.165,11.215,15.068,11.244,14.756z"/>
					<g style="opacity:0.5;">
						<path style="fill:#C2C1C1;" d="M10.483,16.29c0,0,0.306,0.066,0.789,0.304c0.085,0.041,0.177,0.088,0.271,0.13
							c0.245-0.21,0.799-0.519,1.717-0.241c0.223-0.256,0.351-0.531,0.487-0.778C12.567,16.498,11.045,16.372,10.483,16.29z"/>
					</g>
					<g style="opacity:0.7;">
						<path style="fill:#E7B89A;" d="M18.448,11.888c-0.291-1.389-1.129-2.609-0.997-2.177c0.133,0.432,0,0.831,0,0.831
							c-1.021-0.347-1.615-1.189-1.756-1.409c0.17,0.291,0.367,0.893,0.367,0.893c-1.93,0.139-3.263-1.28-3.263-1.28
							c0.137,0.797,0.846,1.099,0.846,1.099c-2.763,0.439-3.024-0.962-3.024-0.962c-0.05,0.772,0.497,1.031,0.497,1.031
							C10.26,9.901,9.898,9.278,9.898,9.278c0,0.798,0.761,1.097,0.761,1.097c-3.187,0.598-3.163-1.731-3.163-1.731
							c-0.448,1.147,0,1.831,0,1.831c-1.108-0.137-1.108-1.258-1.108-1.258c-0.387,0.486-0.523,1.146-0.308,2.64
							c0.03,0.219,0.052,0.418,0.065,0.605l0,0c0,0,0.07-0.119,0.019-1.124c-0.051-1.006,0.099-1.222,0.597-0.901
							c0.497,0.32,1.204,0.442,0.946,0c-0.256-0.443,1.062,0.53,2.778,0.212c1.032-0.19,0.55-0.28,0.285-0.436
							c-0.266-0.153,0.447,0.155,1.196,0c0,0,0.899,0.237,1.816,0.013c0.474-0.116,0.1-0.382,0.1-0.382s1.437,0.387,2.151,0.415
							c0.379,0.016,0.431,0.473,0.895,1.089c0.466,0.613,0.623,0.743,0.483,1.114c-0.142,0.369-0.3,0.596,0.1,0.992
							c0.397,0.399,0.847,1.062,0.509,1.805c0.154-0.196,0.23-0.319,0.23-0.319C18.598,14.26,18.697,13.066,18.448,11.888z"/>
					</g>
				</g>
			</g>
			<g>
				<g>
					<path style="fill:#6E4436;" d="M21.95,6.74c-0.597-1.693-2.074-1.486-2.074-1.486c0.622-0.391,1.138-0.332,1.014-0.48
						c-0.602-0.723-1.92-0.441-1.92-0.441c0.15-1.304-0.339-1.675-0.348-1.395c-0.02,0.642-0.257,1.03-0.257,1.03
						C15.601,0.718,9.849,1.623,7.657,2.694c-2.19,1.069-2.727,0.869-2.825,0.69C4.732,3.204,4.484,3.122,4.444,3.591
						c-0.052,0.67,0.448,0.808,0.448,0.808C4.246,4.263,3.859,3.664,3.81,3.863C3.579,4.797,4.209,4.997,4.209,4.997
						c-1.47-0.461-2.23,0.547-1.855,0.535C2.727,5.52,3.387,5.608,3.387,5.608C1.032,6.142,1.756,8.234,2.169,7.984
						c0.416-0.249,0.647-0.211,0.647-0.211C1.829,8.533,2.204,9.791,2.44,9.467c0.238-0.325,0.698-0.564,0.698-0.564
						c-0.747,1.057-0.344,2.742-0.069,2.186c0.273-0.556,0.593-0.876,0.593-0.876c-0.66,2.728,0.535,2.93,0.516,2.646
						c-0.038-0.484,0.052-0.758,0.052-0.758c0.009,0.722,0.425,1.071,0.425,1.071c-0.055-1.317,1.029-1.628,1.492-0.711
						c-0.014-0.188-0.035-0.387-0.065-0.605c-0.216-1.494-0.079-2.153,0.308-2.64c0,0,0,1.121,1.108,1.258c0,0-0.448-0.684,0-1.831
						c0,0-0.023,2.329,3.163,1.731c0,0-0.761-0.299-0.761-1.097c0,0,0.362,0.623,1.221,0.635c0,0-0.547-0.259-0.497-1.031
						c0,0,0.262,1.401,3.024,0.962c0,0-0.709-0.302-0.846-1.099c0,0,1.333,1.419,3.263,1.28c0,0-0.197-0.602-0.367-0.893
						c0.141,0.22,0.735,1.063,1.756,1.409c0,0,0.133-0.399,0-0.831c-0.116-0.384,0.528,0.538,0.881,1.721
						c0.393-0.848,1.442-0.535,1.77,0.256c0.37,0.896-0.319,2.54-1.556,2.172c-0.051,0.422-0.152,0.797-0.296,1.08
						c1.575,0.003,2.323-1.791,2.323-1.791s-0.068,0.613,0.215,0.496c1.354-0.556,1.025-2.534,1.025-2.534s0.36,1.382,0.723,0.635
						c0.36-0.748-0.35-2.03-0.35-2.03s0.586,0.846,0.772,0.635c0.188-0.21-0.248-0.821-0.248-0.821
						c0.585,0.746,1.156,0.05,1.156,0.05C22.971,9.654,22.549,8.434,21.95,6.74z"/>
					<g>
						<path style="fill:#503022;" d="M21.992,6.736c-0.317-0.876-1.135-1.634-2.129-1.5c0.018,0.009,0.032,0.019,0.052,0.029
							c0.223-0.136,0.457-0.236,0.706-0.308c0.087-0.025,0.247-0.037,0.314-0.109c0.126-0.138-0.487-0.433-0.579-0.465
							c-0.432-0.16-0.957-0.16-1.406-0.067c0.021,0.006,0.044,0.013,0.066,0.019c0.038-0.377,0.058-0.782-0.06-1.149
							c-0.041-0.123-0.101-0.306-0.241-0.349c-0.131-0.042-0.137,0.089-0.142,0.182c-0.014,0.315-0.086,0.669-0.252,0.942
							c0.029,0,0.059,0.002,0.087,0.002c-1.205-1.402-2.988-2.046-4.787-2.223c-1.657-0.162-3.38,0.035-4.962,0.535
							C7.824,2.538,7.069,2.98,6.248,3.274C5.931,3.388,5.596,3.493,5.256,3.51C5.134,3.515,4.969,3.505,4.888,3.4
							C4.789,3.275,4.648,3.145,4.495,3.282c-0.141,0.13-0.108,0.45-0.077,0.616c0.03,0.159,0.122,0.297,0.243,0.4
							c0.059,0.049,0.13,0.09,0.202,0.112c0.031,0.012-0.068-0.06-0.072-0.06C4.714,4.329,4.642,4.294,4.569,4.261
							C4.438,4.196,4.32,4.113,4.204,4.027C4.168,3.999,3.829,3.682,3.77,3.846C3.659,4.165,3.686,4.612,3.945,4.858
							c0.059,0.058,0.126,0.103,0.201,0.14C4.188,5.015,4.215,4.977,4.16,4.96C4.022,4.921,3.88,4.893,3.736,4.874
							c-0.359-0.045-0.753-0.007-1.08,0.155C2.505,5.107,2.222,5.261,2.215,5.464C2.212,5.51,2.258,5.535,2.298,5.544
							C2.47,5.588,2.686,5.558,2.866,5.57C3.035,5.583,3.203,5.602,3.37,5.624C3.159,5.596,2.902,5.718,2.71,5.81
							C2.126,6.089,1.681,6.601,1.687,7.273C1.689,7.502,1.756,7.883,1.99,7.998c0.07,0.032,0.15,0.034,0.219-0.002
							c0.175-0.097,0.353-0.192,0.559-0.207c0.084-0.005-0.075,0.04-0.101,0.063C2.589,7.925,2.519,8,2.453,8.083
							C2.259,8.325,2.151,8.632,2.126,8.941C2.114,9.114,2.125,9.351,2.249,9.488C2.298,9.546,2.4,9.557,2.458,9.503
							c0.228-0.226,0.43-0.438,0.717-0.59C3.148,8.907,3.121,8.902,3.094,8.899c-0.262,0.383-0.39,0.828-0.425,1.292
							c-0.02,0.295-0.015,0.667,0.139,0.933c0.064,0.114,0.198,0.122,0.277,0.018c0.148-0.2,0.242-0.445,0.393-0.65
							c0.067-0.096,0.143-0.189,0.226-0.271c-0.03-0.003-0.059-0.005-0.088-0.01c-0.147,0.62-0.263,1.276-0.165,1.911
							c0.042,0.269,0.136,0.564,0.35,0.747c0.092,0.078,0.241,0.139,0.359,0.086c0.038-0.017,0.062-0.051,0.06-0.094
							c-0.006-0.251-0.023-0.514,0.055-0.757c-0.029-0.002-0.06-0.002-0.09-0.004c0.012,0.381,0.127,0.821,0.431,1.08
							c0.011,0.01,0.082,0.021,0.082-0.006c-0.009-0.408,0.068-0.877,0.432-1.126c0.393-0.268,0.794,0.074,0.974,0.417
							c0.008,0.019,0.09,0.024,0.088-0.003c-0.081-1.036-0.469-2.328,0.239-3.239C6.4,9.221,6.372,9.218,6.343,9.217
							c0.005,0.671,0.488,1.184,1.141,1.275c0.008,0,0.068,0,0.057-0.021c-0.339-0.524-0.204-1.28-0.002-1.819
							C7.51,8.649,7.479,8.646,7.451,8.644C7.448,9.059,7.63,9.493,7.893,9.807c0.671,0.791,1.862,0.753,2.787,0.583
							c0.017-0.001,0.035-0.017,0.01-0.025c-0.441-0.18-0.733-0.612-0.746-1.083c-0.029,0-0.061,0.002-0.09,0.002
							c0.258,0.431,0.787,0.633,1.265,0.649c0.017,0,0.068-0.012,0.033-0.03c-0.373-0.182-0.503-0.639-0.486-1.02
							c-0.03-0.001-0.06-0.002-0.09-0.002c0.056,0.285,0.301,0.532,0.53,0.688c0.727,0.493,1.743,0.417,2.563,0.29
							c0.017-0.001,0.033-0.016,0.011-0.024c-0.438-0.192-0.743-0.631-0.834-1.089c-0.03,0.001-0.059,0.001-0.088,0.003
							c0.828,0.878,2.12,1.369,3.314,1.295c0.014,0,0.04-0.005,0.033-0.021c-0.099-0.304-0.209-0.614-0.366-0.894
							c-0.026,0.002-0.057,0.006-0.085,0.008c0.412,0.645,1.043,1.163,1.766,1.415c0.018,0.008,0.069,0.016,0.077-0.01
							c0.062-0.19,0.066-0.396,0.049-0.593c-0.008-0.104-0.059-0.205-0.063-0.308c0.001,0.03-0.068-0.026-0.011,0.042
							c0.027,0.031,0.051,0.064,0.071,0.099c0.345,0.492,0.573,1.084,0.746,1.653c0.006,0.018,0.076,0.018,0.087,0.002
							c0.255-0.516,0.791-0.614,1.256-0.291c0.363,0.252,0.522,0.679,0.525,1.107c0.002,0.841-0.633,1.855-1.589,1.589
							c-0.012-0.002-0.063-0.008-0.065,0.017c-0.051,0.37-0.131,0.735-0.298,1.074c-0.009,0.019,0.031,0.023,0.043,0.023
							c1.076-0.013,1.967-0.847,2.368-1.805c-0.03-0.002-0.058-0.004-0.088-0.006c-0.019,0.185-0.037,0.559,0.236,0.528
							c0.173-0.019,0.364-0.178,0.49-0.284c0.167-0.143,0.292-0.325,0.39-0.521c0.261-0.521,0.308-1.189,0.215-1.758
							c-0.029-0.002-0.06-0.002-0.09-0.004c0.06,0.233,0.345,1.184,0.72,0.788c0.313-0.33,0.195-0.931,0.092-1.316
							C22.5,10.281,22.38,9.984,22.23,9.711c-0.03,0.003-0.058,0.006-0.088,0.008c0.155,0.22,0.434,0.674,0.739,0.682
							c0.414,0.016-0.04-0.748-0.129-0.875c-0.028,0.002-0.06,0.005-0.086,0.007c0.342,0.411,0.879,0.486,1.245,0.053
							c0.016-0.021-0.05-0.024-0.055-0.024c-0.547,0.033-0.872-0.467-1.098-0.89C22.435,8.058,22.224,7.388,21.992,6.736
							c-0.007-0.023-0.094-0.019-0.084,0.007c0.262,0.749,0.501,1.545,0.929,2.22c0.237,0.376,0.579,0.661,1.042,0.633
							c-0.019-0.008-0.036-0.016-0.053-0.022c-0.06,0.068-0.133,0.127-0.208,0.175c-0.325,0.215-0.641,0.046-0.865-0.223
							c-0.017-0.019-0.1-0.015-0.086,0.007c0.065,0.092,0.12,0.19,0.174,0.29c0.027,0.053,0.236,0.622-0.001,0.53
							c-0.253-0.096-0.46-0.427-0.609-0.642c-0.014-0.02-0.101-0.016-0.088,0.008c0.286,0.521,0.53,1.182,0.427,1.782
							c-0.024,0.144-0.098,0.372-0.244,0.442c-0.1,0.047-0.225-0.21-0.258-0.272c-0.092-0.176-0.158-0.37-0.208-0.56
							c-0.007-0.028-0.094-0.027-0.09-0.004c0.07,0.437,0.044,0.905-0.062,1.334c-0.095,0.383-0.292,0.739-0.601,0.989
							c-0.093,0.071-0.195,0.13-0.301,0.179c-0.13,0.063-0.164-0.047-0.184-0.151c-0.019-0.101-0.015-0.21-0.003-0.31
							c0.001-0.024-0.08-0.027-0.09-0.007c-0.384,0.914-1.242,1.767-2.279,1.78c0.014,0.007,0.027,0.016,0.041,0.024
							c0.167-0.34,0.251-0.71,0.301-1.085c-0.023,0.004-0.046,0.01-0.068,0.013c1.055,0.293,1.75-0.759,1.722-1.71
							c-0.016-0.519-0.327-0.985-0.808-1.183c-0.462-0.189-0.931,0.003-1.148,0.442c0.027,0.002,0.057,0.002,0.087,0.005
							c-0.13-0.425-0.294-0.834-0.495-1.228c-0.099-0.191-0.208-0.423-0.366-0.572c-0.047-0.041-0.131-0.035-0.119,0.037
							c0.044,0.301,0.109,0.571,0.012,0.874c0.025-0.004,0.05-0.007,0.076-0.012c-0.715-0.251-1.334-0.763-1.745-1.4
							c-0.013-0.02-0.1-0.015-0.085,0.008c0.1,0.178,0.174,0.366,0.244,0.555c0.031,0.085,0.061,0.17,0.092,0.256
							c0.036,0.102,0.024,0.064-0.084,0.069c-0.581,0.024-1.161-0.115-1.692-0.347c-0.493-0.216-0.995-0.533-1.369-0.929
							c-0.012-0.013-0.093-0.026-0.088,0.001c0.092,0.471,0.384,0.86,0.805,1.088c0.016,0.008,0.031,0.015,0.048,0.023
							c-0.068-0.032-0.192,0.005-0.282,0.016c-0.22,0.027-0.443,0.042-0.665,0.044c-0.317,0.001-0.634-0.031-0.94-0.118
							c-0.421-0.118-0.963-0.435-1.056-0.911c-0.004-0.026-0.089-0.029-0.09-0.002c-0.016,0.4,0.124,0.836,0.498,1.038
							c-0.08-0.043-0.338-0.069-0.476-0.12c-0.136-0.051-0.259-0.127-0.373-0.214c-0.108-0.085-0.213-0.189-0.282-0.31
							c-0.01-0.018-0.09-0.024-0.089,0.002C9.86,9.608,9.987,9.89,10.223,10.12c0.086,0.081,0.181,0.149,0.284,0.207
							c0.027,0.017,0.053,0.03,0.08,0.041c0.059,0.03,0.029-0.006-0.021,0.002c-0.736,0.135-1.576,0.158-2.227-0.26
							C7.862,9.807,7.535,9.217,7.54,8.646c0-0.024-0.079-0.029-0.088-0.007c-0.207,0.546-0.342,1.306,0,1.839
							c0.02-0.007,0.037-0.014,0.057-0.021c-0.627-0.089-1.071-0.604-1.077-1.239c0-0.026-0.075-0.023-0.088-0.008
							c-0.71,0.916-0.323,2.211-0.242,3.25c0.03-0.002,0.058-0.002,0.088-0.002c-0.188-0.356-0.536-0.626-0.956-0.512
							c-0.512,0.136-0.637,0.773-0.625,1.224c0.027-0.002,0.056-0.002,0.084-0.006c-0.295-0.254-0.405-0.69-0.418-1.061
							c-0.003-0.028-0.083-0.028-0.09-0.004c-0.046,0.145-0.057,0.304-0.062,0.452c-0.003,0.088,0.064,0.305-0.019,0.371
							c-0.103,0.079-0.28-0.118-0.329-0.184c-0.181-0.231-0.233-0.544-0.259-0.827c-0.049-0.568,0.058-1.147,0.191-1.697
							c0.004-0.026-0.078-0.02-0.089-0.007c-0.174,0.175-0.314,0.385-0.443,0.595c-0.016,0.027-0.188,0.399-0.234,0.37
							c-0.078-0.051-0.108-0.197-0.13-0.278C2.643,10.243,2.807,9.456,3.18,8.909C3.197,8.883,3.11,8.888,3.1,8.891
							C2.928,8.983,2.761,9.094,2.618,9.224C2.58,9.258,2.376,9.511,2.342,9.488c-0.058-0.041-0.083-0.143-0.1-0.205
							c-0.144-0.563,0.185-1.158,0.61-1.499c0.02-0.015-0.014-0.025-0.025-0.028c-0.09-0.013-0.189,0.005-0.275,0.03
							c-0.121,0.036-0.236,0.087-0.35,0.147C2.133,7.971,2.105,8.006,2.034,7.962C1.851,7.84,1.794,7.538,1.778,7.336
							C1.707,6.379,2.586,5.817,3.409,5.624C3.445,5.614,3.427,5.594,3.4,5.59C3.185,5.561,2.966,5.54,2.748,5.525
							C2.593,5.515,2.184,5.595,2.356,5.342c0.373-0.554,1.286-0.493,1.83-0.331c0.024,0.01,0.101-0.01,0.046-0.03
							C3.925,4.88,3.8,4.503,3.804,4.196c0.003-0.063,0.013-0.379,0.101-0.323c0.092,0.06,0.174,0.135,0.261,0.199
							C4.38,4.231,4.612,4.352,4.871,4.413C4.898,4.421,4.974,4.4,4.916,4.384C4.55,4.275,4.463,3.846,4.497,3.519
							c0.015-0.12,0.1-0.353,0.252-0.187c0.022,0.023,0.037,0.056,0.057,0.081c0.026,0.034,0.064,0.059,0.101,0.074
							c0.371,0.19,0.947-0.033,1.303-0.149c0.835-0.28,1.595-0.732,2.429-1.008c0.794-0.263,1.62-0.426,2.447-0.522
							c2.547-0.292,5.477,0.115,7.236,2.162c0.014,0.019,0.074,0.024,0.086,0.003c0.077-0.125,0.123-0.268,0.164-0.406
							c0.045-0.151,0.07-0.31,0.086-0.466c0.002-0.021,0.011-0.239,0.031-0.225c0.13,0.078,0.181,0.303,0.212,0.435
							c0.078,0.333,0.062,0.685,0.024,1.019c-0.001,0.023,0.058,0.021,0.068,0.018c0.407-0.085,0.858-0.076,1.258,0.044
							c0.161,0.05,0.311,0.13,0.444,0.234c0.102,0.079,0.244,0.184,0.072,0.243c-0.324,0.108-0.634,0.193-0.931,0.372
							c-0.03,0.018,0.041,0.03,0.05,0.027c0.956-0.128,1.717,0.645,2.021,1.473C21.916,6.767,22.003,6.762,21.992,6.736z"/>
					</g>
				</g>
				<g style="opacity:0.6;">
					<path style="fill:#6E4436;" d="M21.95,6.74c-0.597-1.693-2.074-1.486-2.074-1.486c0.622-0.391,1.138-0.332,1.014-0.48
						c-0.602-0.723-1.92-0.441-1.92-0.441c0.15-1.304-0.339-1.675-0.348-1.395c-0.02,0.642-0.257,1.03-0.257,1.03
						c-0.654-0.77-1.477-1.306-2.378-1.66c1.615,0.706,2.229,2.043,2.229,2.043c0.456-0.375,0.522-1.112,0.571-0.5
						c0.051,0.616-0.156,0.798-0.156,0.798c1.163-0.663,2.259,0.126,1.534,0.234c-0.721,0.107-1.062,0.887-0.82,0.73
						c1.62-1.063,2.621,1.409,2.822,2.258c0.199,0.846,0.531,1.468,0.132,1.328c-0.398-0.142-0.556-0.674-0.556-0.674
						c0.424,1.751-0.498,2.757-0.579,1.751C21.078,9.271,20.3,8.524,20.3,8.524c0.149,0.928-0.208,2.217-1.031,0.567
						c-0.827-1.653-1.908-2.07-1.908-2.07s0.084,1.264-0.68,1.503c-0.765,0.24-1.548-1.012-1.548-1.012s0.468,1.983-0.886,1.792
						c-1.35-0.189-2.075-1.876-2.075-1.876s0.566,1.753-0.472,1.663c-1.038-0.092-1.494-1.089-1.494-1.089s0.141,1.127-0.357,0.848
						C9.431,8.611,9.358,7.894,9.358,7.894S9.095,8.391,9.441,9.189c0.262,0.595-0.355,0.472-0.92-0.166
						C7.816,8.224,7.778,7.47,7.778,7.47c-1.061,0.855-0.577,1.951-0.96,1.38C6.438,8.275,6.619,7.321,6.619,7.321
						c-1.095,1.261-0.786,2.879-1.618,2.82c-0.895-0.064-0.705-1.286-0.705-1.286c-0.199,0.963-1.038,1.221-1.062,0.69
						C3.209,9.014,3.888,7.869,3.888,7.869S3.044,8.864,2.894,8.322c-0.15-0.54,0.63-1.351,0.63-1.351
						C2.23,7.478,1.798,7.129,2.253,6.457c0.457-0.673,1.67-0.962,1.67-0.962C3.166,5.452,2.852,5.175,3.227,5.07
						c0.6-0.165,1.427,0.125,1.427,0.125C4.441,5.047,4.122,4.398,4.707,4.61c0.585,0.212,1.119-0.149,1.119-0.149
						C4.634,4.536,4.655,3.478,4.942,3.628c0.286,0.148,0.811,0.309,1.782-0.325C7.691,2.67,9.297,2.117,9.311,2.112
						C8.655,2.281,8.088,2.481,7.657,2.694c-2.19,1.069-2.727,0.869-2.825,0.69C4.732,3.204,4.484,3.122,4.444,3.591
						c-0.052,0.67,0.448,0.808,0.448,0.808C4.246,4.263,3.859,3.664,3.81,3.863C3.579,4.797,4.209,4.997,4.209,4.997
						c-1.47-0.461-2.23,0.547-1.855,0.535C2.727,5.52,3.387,5.608,3.387,5.608C1.032,6.142,1.756,8.234,2.169,7.984
						c0.416-0.249,0.647-0.211,0.647-0.211C1.829,8.533,2.204,9.791,2.44,9.467c0.238-0.325,0.698-0.564,0.698-0.564
						c-0.747,1.057-0.344,2.742-0.069,2.186c0.273-0.556,0.593-0.876,0.593-0.876c-0.66,2.728,0.535,2.93,0.516,2.646
						c-0.038-0.484,0.052-0.758,0.052-0.758c0.009,0.722,0.425,1.071,0.425,1.071c-0.055-1.317,1.029-1.628,1.492-0.711
						c-0.014-0.188-0.035-0.387-0.065-0.605c-0.216-1.494-0.079-2.153,0.308-2.64c0,0,0,1.121,1.108,1.258c0,0-0.448-0.684,0-1.831
						c0,0-0.023,2.329,3.163,1.731c0,0-0.761-0.299-0.761-1.097c0,0,0.362,0.623,1.221,0.635c0,0-0.547-0.259-0.497-1.031
						c0,0,0.262,1.401,3.024,0.962c0,0-0.709-0.302-0.846-1.099c0,0,1.333,1.419,3.263,1.28c0,0-0.197-0.602-0.367-0.893
						c0.141,0.22,0.735,1.063,1.756,1.409c0,0,0.133-0.399,0-0.831c-0.116-0.384,0.528,0.538,0.881,1.721
						c0.393-0.848,1.442-0.535,1.77,0.256c0.37,0.896-0.319,2.54-1.556,2.172c-0.051,0.422-0.152,0.797-0.296,1.08
						c1.575,0.003,2.323-1.791,2.323-1.791s-0.068,0.613,0.215,0.496c1.354-0.556,1.025-2.534,1.025-2.534s0.36,1.382,0.723,0.635
						c0.36-0.748-0.35-2.03-0.35-2.03s0.586,0.846,0.772,0.635c0.188-0.21-0.248-0.821-0.248-0.821
						c0.585,0.746,1.156,0.05,1.156,0.05C22.971,9.654,22.549,8.434,21.95,6.74z"/>
				</g>
				<path style="opacity:0.4;fill:#6E4436;" d="M16.521,5.245c0,0,0.476,1.657-0.572,1.682c-0.913,0.02-1.382-1.222-1.382-1.222
					c0.026,0.962-0.497,1.519-1.2,0.86c-0.518-0.484-0.664-0.946-0.664-0.946s0.143,1.375-0.769,1.392
					c-0.914,0.015-1.361-1.135-1.361-1.135s0.096,1.512-0.631,1.252C9.333,6.914,9.284,5.702,9.284,5.702
					c-0.391,0.937-1.554,1.734-1.91,1.403C7.018,6.773,7.541,6.06,7.541,6.06C6.553,6.898,4.636,8.333,4.969,7.197
					C5.301,6.06,6.361,5.446,6.361,5.446C5.042,5.81,4.314,5.297,5.255,5.083c0.939-0.211,1.523-0.825,1.523-0.825
					C5.891,4.598,5.24,3.893,5.728,3.839c0.484-0.056,0.719-0.137,1.797-0.753c2.2-1.252,4.831-1.177,4.831-1.177
					S9.364,2.33,8.417,2.997C7.639,3.548,9.202,3.272,9.202,3.272S7.633,3.906,7.378,4.648C7.121,5.39,9.089,4.323,9.089,4.323
					S8.316,4.997,8.167,5.608c-0.148,0.61,0.946-0.075,1.396-0.905c0,0,0,1.152,0.343,1.528c0.341,0.372,0.367-1.265,0.367-1.265
					s0.691,1.195,1.351,1.239c0.659,0.043,0.777-1.62,0.777-1.62s0.49,0.935,1.208,1.108c0.717,0.174,0.424-1.145,0.424-1.145
					s1.076,1.805,1.892,1.631C16.571,6.043,16.521,5.245,16.521,5.245z"/>
				<path style="opacity:0.4;fill:#6E4436;" d="M20.315,5.668c1.56-0.057,2.102,3.455,1.743,2.924
					c-0.356-0.529-0.639-0.631-0.639-0.631c0.349,1.111,0.092,2.216-0.215,1.201c-0.308-1.01-1.255-1.317-1.255-1.317
					c0.293,1.211,0,1.82-0.604,0.747C18.431,6.972,17.411,6.5,17.411,6.5s1.327,0.521,1.892,1.296
					c0.564,0.768,0.179-0.592,0.179-0.592s0.701,0.241,1.356,0.955c0.654,0.713,0.467-0.24-0.406-1.071c0,0,0.64,0.096,1.112,0.529
					C22.019,8.052,21.137,5.711,20.315,5.668z"/>
				<g>
					<g style="opacity:0.6;">
						<path style="fill:#AA4925;" d="M5.052,11.529c-0.756,0.1-0.798-0.721-0.798-0.721s-0.308,0.811-0.49,0.372
							c-0.183-0.44-0.102-0.968-0.102-0.968c-0.66,2.728,0.535,2.93,0.516,2.646c-0.038-0.484,0.052-0.758,0.052-0.758
							c0.009,0.722,0.425,1.071,0.425,1.071c-0.055-1.317,1.029-1.628,1.492-0.711c-0.014-0.188-0.035-0.387-0.065-0.605
							c-0.094-0.639-0.119-1.128-0.091-1.512l-0.011-0.019C5.979,10.326,5.806,11.43,5.052,11.529z"/>
					</g>
					<g style="opacity:0.6;">
						<path style="fill:#6E4436;" d="M21.739,10.66c0,0,0.03,0.642-0.279,1.163c-0.246,0.416-0.632,0.725-1.285,0.12
							c0.169,0.917-0.502,2.253-1.629,1.916c-0.051,0.422-0.152,0.797-0.296,1.08c1.575,0.003,2.323-1.791,2.323-1.791
							s-0.068,0.613,0.215,0.496c1.354-0.556,1.025-2.534,1.025-2.534s0.36,1.382,0.723,0.635c0.051-0.106,0.081-0.225,0.094-0.349
							C22.624,11.403,22.282,11.91,21.739,10.66z"/>
					</g>
				</g>
			</g>
		</g>
	</g>
</g>
</svg>
